<svg width="153" height="83" viewBox="0 0 153 83" fill="none" xmlns="http://www.w3.org/2000/svg">
<path d="M9.11869 60.4263C7.55152 60.4263 6.15503 60.0849 4.92922 59.4022C3.71893 58.7194 2.77242 57.7341 2.08969 56.4463C1.40696 55.1584 1.0656 53.6533 1.0656 51.931C1.0656 50.2241 1.42248 48.7268 2.13624 47.4389C2.86552 46.151 3.84306 45.1657 5.06887 44.483C6.29468 43.7848 7.64462 43.4356 9.11869 43.4356C10.4997 43.4356 11.6944 43.6917 12.703 44.2037C13.7271 44.7002 14.534 45.3519 15.1236 46.1588C15.7132 46.9657 16.0934 47.8268 16.2641 48.7423H13.2616C13.0444 47.9975 12.5866 47.3536 11.8884 46.8105C11.2057 46.2519 10.3057 45.9726 9.18851 45.9726C8.21097 45.9726 7.34204 46.2131 6.58173 46.6941C5.82142 47.1596 5.22403 47.8423 4.78957 48.7423C4.37062 49.6423 4.16115 50.7051 4.16115 51.931C4.16115 53.1568 4.37062 54.2196 4.78957 55.1196C5.22403 56.0196 5.82142 56.7101 6.58173 57.1911C7.35756 57.6566 8.22649 57.8893 9.18851 57.8893C10.3057 57.8893 11.2057 57.6178 11.8884 57.0747C12.5866 56.5161 13.0444 55.8644 13.2616 55.1196H16.2641C16.0934 56.0351 15.7132 56.8963 15.1236 57.7031C14.534 58.51 13.7271 59.1694 12.703 59.6815C11.6944 60.178 10.4997 60.4263 9.11869 60.4263ZM21.0529 60.403C19.8582 60.403 18.8496 60.0927 18.0272 59.472C17.2204 58.8358 16.8169 57.9436 16.8169 56.7954C16.8169 55.911 17.0574 55.2205 17.5384 54.7239C18.035 54.2119 18.6091 53.855 19.2608 53.6533C19.9125 53.4516 20.6728 53.2887 21.5417 53.1645L22.4029 53.0714C23.008 52.9938 23.4735 52.9007 23.7994 52.7921C24.1407 52.6835 24.389 52.5283 24.5442 52.3266C24.7149 52.1249 24.8002 51.8379 24.8002 51.4655C24.8002 50.9689 24.614 50.581 24.2416 50.3017C23.8847 50.0069 23.3727 49.8595 22.7055 49.8595C22.0538 49.8595 21.5262 49.9914 21.1228 50.2552C20.7193 50.5034 20.4711 50.837 20.378 51.256H17.329C17.4686 50.5888 17.7634 49.9991 18.2134 49.4871C18.6789 48.9751 19.2918 48.5716 20.0521 48.2768C20.8124 47.982 21.7046 47.8346 22.7287 47.8346C23.8149 47.8346 24.7149 47.982 25.4286 48.2768C26.1424 48.5561 26.6699 48.9751 27.0113 49.5336C27.3682 50.0922 27.5466 50.7672 27.5466 51.5586V57.2143C27.5466 57.6798 27.5854 58.1686 27.663 58.6807C27.7406 59.1772 27.8337 59.6427 27.9423 60.0771H25.1726C25.0174 59.441 24.9243 58.8203 24.8933 58.2152L25.0329 58.3548C24.7071 58.9289 24.2028 59.4177 23.5201 59.8211C22.8529 60.209 22.0305 60.403 21.0529 60.403ZM21.821 58.2617C22.4106 58.2617 22.9305 58.1298 23.3804 57.866C23.8304 57.6023 24.1795 57.2376 24.4278 56.7721C24.6761 56.2911 24.8002 55.7635 24.8002 55.1894V53.4904L24.9398 53.7231C24.7226 54.0645 24.4356 54.3205 24.0787 54.4912C23.7218 54.6464 23.1632 54.786 22.4029 54.9101C21.4719 55.0653 20.7969 55.2593 20.378 55.492C19.959 55.7248 19.7496 56.1282 19.7496 56.7023C19.7496 57.1988 19.9435 57.5867 20.3314 57.866C20.7193 58.1298 21.2159 58.2617 21.821 58.2617ZM29.6402 48.1837H32.3866V51.0465L32.2702 50.9534C32.5185 50.1621 32.8366 49.5414 33.2245 49.0914C33.6124 48.6259 34.0857 48.2923 34.6443 48.0906C35.2029 47.8889 35.8546 47.8113 36.5994 47.8579V50.5112C35.6994 50.4336 34.9934 50.4879 34.4813 50.6741C33.7831 50.9224 33.2633 51.3879 32.9219 52.0706C32.5961 52.7533 32.4332 53.63 32.4332 54.7007V60.0771H29.6402V48.1837ZM41.7768 60.4263C40.7682 60.4263 39.8605 60.1702 39.0537 59.6582C38.2468 59.1462 37.6106 58.4169 37.1451 57.4704C36.6796 56.5083 36.4469 55.3911 36.4469 54.1188C36.4469 52.8464 36.6796 51.737 37.1451 50.7905C37.6106 49.844 38.2468 49.1147 39.0537 48.6027C39.8605 48.0906 40.7682 47.8346 41.7768 47.8346C42.6613 47.8346 43.4216 48.0285 44.0578 48.4165C44.7094 48.8044 45.1905 49.3087 45.5008 49.9293L45.3844 50.1388V43.7848H48.1774V60.0771H45.3844V58.1686L45.5008 58.3781C45.1905 58.9987 44.7172 59.4953 44.081 59.8677C43.4449 60.2401 42.6768 60.4263 41.7768 60.4263ZM42.3354 58.2152C42.9406 58.2152 43.4759 58.0367 43.9414 57.6798C44.4224 57.323 44.787 56.8342 45.0353 56.2135C45.2991 55.5929 45.431 54.8946 45.431 54.1188C45.431 53.3585 45.2991 52.668 45.0353 52.0473C44.787 51.4267 44.4224 50.9457 43.9414 50.6043C43.4759 50.2474 42.9406 50.069 42.3354 50.069C41.6992 50.069 41.1484 50.2397 40.6829 50.581C40.2329 50.9069 39.8916 51.3724 39.6588 51.9775C39.4261 52.5827 39.3097 53.2964 39.3097 54.1188C39.3097 55.3756 39.5735 56.3764 40.101 57.1212C40.6286 57.8505 41.3734 58.2152 42.3354 58.2152ZM50.3811 48.1837H53.1508V60.0771H50.3811V48.1837ZM50.1717 43.8546H53.337V46.7407H50.1717V43.8546ZM60.6714 60.4263C59.5232 60.4263 58.4836 60.1625 57.5526 59.6349C56.6216 59.0918 55.8923 58.3393 55.3648 57.3773C54.8372 56.4152 54.5734 55.3291 54.5734 54.1188C54.5734 52.924 54.8372 51.8456 55.3648 50.8836C55.8923 49.9216 56.6216 49.1768 57.5526 48.6492C58.4836 48.1061 59.5232 47.8346 60.6714 47.8346C61.8041 47.8346 62.836 48.1061 63.767 48.6492C64.698 49.1768 65.4273 49.9216 65.9548 50.8836C66.4824 51.8456 66.7462 52.924 66.7462 54.1188C66.7462 55.3291 66.4824 56.4152 65.9548 57.3773C65.4273 58.3393 64.698 59.0918 63.767 59.6349C62.836 60.1625 61.8041 60.4263 60.6714 60.4263ZM60.6714 58.1686C61.3231 58.1686 61.8895 58.0134 62.3705 57.7031C62.8515 57.3928 63.2239 56.935 63.4877 56.3299C63.767 55.7092 63.9066 54.9722 63.9066 54.1188C63.9066 53.2809 63.767 52.5594 63.4877 51.9542C63.2239 51.3491 62.8515 50.8913 62.3705 50.581C61.8895 50.2552 61.3231 50.0922 60.6714 50.0922C60.0197 50.0922 59.4456 50.2552 58.9491 50.581C58.4681 50.8913 58.0879 51.3491 57.8086 51.9542C57.5448 52.5594 57.413 53.2809 57.413 54.1188C57.413 54.9722 57.5448 55.7092 57.8086 56.3299C58.0879 56.935 58.4681 57.3928 58.9491 57.7031C59.4456 58.0134 60.0197 58.1686 60.6714 58.1686ZM1.01905 78.9832L11.1436 64.483L11.3298 64.8321H1.2518V63.7848H12.1444V64.8787L2.04314 79.3789L1.85694 79.0298H12.3772V80.0771H1.01905V78.9832ZM18.4578 80.4263C17.3872 80.4263 16.4329 80.1625 15.595 79.6349C14.7726 79.0918 14.1209 78.3471 13.6399 77.4005C13.1744 76.454 12.9417 75.3834 12.9417 74.1886C12.9417 72.9938 13.1744 71.9232 13.6399 70.9767C14.1209 70.0302 14.7726 69.2931 15.595 68.7656C16.4329 68.2225 17.3872 67.951 18.4578 67.951C19.5129 67.951 20.4594 68.2225 21.2973 68.7656C22.1352 69.2931 22.7869 70.0302 23.2524 70.9767C23.7179 71.9232 23.9507 72.9938 23.9507 74.1886C23.9507 75.3834 23.7179 76.454 23.2524 77.4005C22.7869 78.3471 22.1352 79.0918 21.2973 79.6349C20.4594 80.1625 19.5129 80.4263 18.4578 80.4263ZM18.4578 79.4953C19.3112 79.4953 20.0638 79.278 20.7155 78.8436C21.3827 78.4091 21.9025 77.7962 22.2749 77.0049C22.6473 76.198 22.8335 75.2593 22.8335 74.1886C22.8335 73.118 22.6473 72.187 22.2749 71.3956C21.9025 70.5888 21.3827 69.9681 20.7155 69.5336C20.0638 69.0992 19.3112 68.882 18.4578 68.882C17.6044 68.882 16.8441 69.0992 16.1769 69.5336C15.5097 69.9681 14.9899 70.5888 14.6175 71.3956C14.2451 72.187 14.0589 73.118 14.0589 74.1886C14.0589 75.2593 14.2451 76.198 14.6175 77.0049C14.9899 77.7962 15.5097 78.4091 16.1769 78.8436C16.8441 79.278 17.6044 79.4953 18.4578 79.4953ZM30.8739 80.4263C29.8033 80.4263 28.849 80.1625 28.0111 79.6349C27.1887 79.0918 26.537 78.3471 26.056 77.4005C25.5905 76.454 25.3578 75.3834 25.3578 74.1886C25.3578 72.9938 25.5905 71.9232 26.056 70.9767C26.537 70.0302 27.1887 69.2931 28.0111 68.7656C28.849 68.2225 29.8033 67.951 30.8739 67.951C31.9291 67.951 32.8756 68.2225 33.7135 68.7656C34.5513 69.2931 35.203 70.0302 35.6685 70.9767C36.134 71.9232 36.3668 72.9938 36.3668 74.1886C36.3668 75.3834 36.134 76.454 35.6685 77.4005C35.203 78.3471 34.5513 79.0918 33.7135 79.6349C32.8756 80.1625 31.9291 80.4263 30.8739 80.4263ZM30.8739 79.4953C31.7273 79.4953 32.4799 79.278 33.1316 78.8436C33.7988 78.4091 34.3186 77.7962 34.691 77.0049C35.0634 76.198 35.2496 75.2593 35.2496 74.1886C35.2496 73.118 35.0634 72.187 34.691 71.3956C34.3186 70.5888 33.7988 69.9681 33.1316 69.5336C32.4799 69.0992 31.7273 68.882 30.8739 68.882C30.0205 68.882 29.2602 69.0992 28.593 69.5336C27.9258 69.9681 27.406 70.5888 27.0336 71.3956C26.6612 72.187 26.475 73.118 26.475 74.1886C26.475 75.2593 26.6612 76.198 27.0336 77.0049C27.406 77.7962 27.9258 78.4091 28.593 78.8436C29.2602 79.278 30.0205 79.4953 30.8739 79.4953ZM38.7515 68.3001H39.7523V70.9767L39.6592 70.7905C39.9695 69.9836 40.4428 69.3087 41.0789 68.7656C41.7151 68.2225 42.522 67.951 43.4995 67.951C44.446 67.951 45.2063 68.2303 45.7805 68.7889C46.3701 69.3474 46.7425 70.069 46.8976 70.9534L46.7347 70.9767C47.014 70.0302 47.5106 69.2931 48.2243 68.7656C48.9536 68.2225 49.7605 67.951 50.6449 67.951C51.3742 67.951 52.0259 68.0984 52.6 68.3932C53.1741 68.688 53.6241 69.1457 53.9499 69.7664C54.2758 70.3715 54.4387 71.1319 54.4387 72.0473V80.0771H53.3913V72.3499C53.3913 71.2172 53.1508 70.356 52.6698 69.7664C52.1888 69.1768 51.4828 68.882 50.5518 68.882C49.5277 68.882 48.6976 69.2621 48.0614 70.0224C47.4407 70.7827 47.1304 71.8146 47.1304 73.118V80.0771H46.0598V72.4663C46.0598 71.3491 45.8192 70.4724 45.3382 69.8362C44.8727 69.2 44.2055 68.882 43.3366 68.882C42.7159 68.882 42.1341 69.0526 41.591 69.394C41.0634 69.7354 40.6367 70.2474 40.3109 70.9301C39.985 71.5973 39.8221 72.412 39.8221 73.374V80.0771H38.7515V68.3001ZM62.2078 80.4263C61.1062 80.4263 60.1286 80.1702 59.2752 79.6582C58.4373 79.1306 57.7856 78.4014 57.3201 77.4704C56.8702 76.5239 56.6452 75.4377 56.6452 74.2119C56.6452 73.0016 56.8857 71.9232 57.3667 70.9767C57.8632 70.0147 58.5227 69.2699 59.345 68.7423C60.1829 68.2147 61.0907 67.951 62.0682 67.951C63.1233 67.951 64.0466 68.2147 64.8379 68.7423C65.6448 69.2543 66.2732 69.9914 66.7232 70.9534C67.1731 71.8999 67.4059 73.0171 67.4214 74.305H57.4132V73.374H66.6999L66.3973 73.8162C66.3663 72.3266 65.9629 71.1319 65.187 70.2319C64.4112 69.3319 63.3716 68.882 62.0682 68.882C61.2924 68.882 60.5709 69.0914 59.9036 69.5104C59.2519 69.9293 58.7321 70.5189 58.3442 71.2793C57.9563 72.0241 57.7624 72.8775 57.7624 73.8395V74.305C57.7624 75.3446 57.9486 76.2601 58.321 77.0514C58.6933 77.8272 59.2132 78.4324 59.8804 78.8669C60.5631 79.2858 61.3544 79.4953 62.2544 79.4953C63.2164 79.4953 64.0155 79.2858 64.6517 78.8669C65.2879 78.4479 65.7456 77.8893 66.0249 77.1911H67.1887C66.8473 78.1531 66.2499 78.9367 65.3965 79.5418C64.5586 80.1315 63.4957 80.4263 62.2078 80.4263ZM69.7206 68.3001H70.7447V71.5586L70.6516 71.4655C70.8844 70.6276 71.2335 69.9371 71.699 69.394C72.1645 68.8509 72.7153 68.4708 73.3515 68.2535C73.9877 68.0208 74.6782 67.9277 75.4229 67.9742V69.0682C74.3833 68.9906 73.5454 69.1147 72.9093 69.4405C72.2265 69.8129 71.699 70.3871 71.3266 71.1629C70.9697 71.9232 70.7913 72.8852 70.7913 74.049V80.0771H69.7206V68.3001Z" fill="#161616"/>
<circle cx="12.907" cy="12.9653" r="3.3877" fill="#161616"/>
<circle cx="18.792" cy="2.96995" r="1.36693" fill="#161616"/>
<circle cx="23.3478" cy="7.63834" r="1.944" fill="#161616"/>
<circle cx="24.1227" cy="14.6569" r="2.4245" fill="#161616"/>
<circle cx="19.9737" cy="21.742" r="2.94901" fill="#161616"/>
<path d="M12.9478 24.5749C6.52618 24.5749 1.32047 19.3692 1.32047 12.9476C1.32047 6.52603 6.52618 1.32031 12.9478 1.32031" stroke="#161616" stroke-width="2.64101"/>
</svg>
