<svg width="153" height="87" viewBox="0 0 153 87" fill="none" xmlns="http://www.w3.org/2000/svg">
<path d="M9.07719 64.897C7.51001 64.897 6.11352 64.5556 4.88772 63.8729C3.67742 63.1902 2.73091 62.2049 2.04819 60.917C1.36546 59.6291 1.02409 58.124 1.02409 56.4017C1.02409 54.6948 1.38097 53.1975 2.09474 51.9096C2.82401 50.6217 3.80156 49.6364 5.02736 48.9537C6.25317 48.2555 7.60311 47.9063 9.07719 47.9063C10.4582 47.9063 11.6529 48.1624 12.6615 48.6744C13.6856 49.1709 14.4925 49.8226 15.0821 50.6295C15.6717 51.4364 16.0519 52.2975 16.2226 53.213H13.2201C13.0029 52.4682 12.5451 51.8243 11.8469 51.2812C11.1642 50.7226 10.2642 50.4433 9.14701 50.4433C8.16947 50.4433 7.30054 50.6838 6.54023 51.1648C5.77992 51.6303 5.18253 52.313 4.74807 53.213C4.32912 54.113 4.11965 55.1759 4.11965 56.4017C4.11965 57.6275 4.32912 58.6904 4.74807 59.5903C5.18253 60.4903 5.77992 61.1808 6.54023 61.6618C7.31606 62.1273 8.18498 62.36 9.14701 62.36C10.2642 62.36 11.1642 62.0885 11.8469 61.5454C12.5451 60.9868 13.0029 60.3351 13.2201 59.5903H16.2226C16.0519 60.5058 15.6717 61.367 15.0821 62.1738C14.4925 62.9807 13.6856 63.6401 12.6615 64.1522C11.6529 64.6487 10.4582 64.897 9.07719 64.897ZM22.9227 64.897C21.6659 64.897 20.572 64.641 19.641 64.1289C18.71 63.6013 17.9962 62.8643 17.4997 61.9178C17.0031 60.9713 16.7549 59.8696 16.7549 58.6128C16.7549 57.4025 17.0187 56.3163 17.5462 55.3543C18.0893 54.3923 18.8186 53.6475 19.7341 53.1199C20.6495 52.5768 21.6504 52.3053 22.7365 52.3053C23.9158 52.3053 24.9476 52.5846 25.8321 53.1432C26.732 53.7018 27.4303 54.5164 27.9268 55.587C28.4388 56.6422 28.7026 57.9145 28.7181 59.4041H18.3376V57.3559H26.9725L25.995 58.2404C25.995 57.1232 25.7157 56.2232 25.1571 55.5405C24.5985 54.8578 23.8149 54.5164 22.8063 54.5164C22.2012 54.5164 21.6504 54.6716 21.1538 54.9819C20.6728 55.2767 20.2927 55.6957 20.0134 56.2387C19.7341 56.7663 19.5944 57.3482 19.5944 57.9843V59.0783C19.5944 59.7765 19.7341 60.4049 20.0134 60.9635C20.3082 61.5066 20.7116 61.9333 21.2236 62.2436C21.7357 62.554 22.3176 62.7091 22.9693 62.7091C23.5899 62.7091 24.1097 62.5928 24.5287 62.36C24.9476 62.1273 25.2502 61.8169 25.4364 61.429H28.3923C28.0664 62.4841 27.4225 63.3298 26.4605 63.966C25.514 64.5866 24.3347 64.897 22.9227 64.897ZM30.0533 48.2555H32.8462V64.5479H30.0533V48.2555ZM35.0596 48.2555H37.8526V64.5479H35.0596V48.2555ZM43.9063 64.897C43.115 64.897 42.4167 64.7341 41.8116 64.4082C41.222 64.0668 40.7642 63.5703 40.4384 62.9186C40.1125 62.2669 39.9496 61.4678 39.9496 60.5213V52.6544H42.7193V60.0791C42.7193 60.9015 42.8822 61.5299 43.2081 61.9643C43.5339 62.3833 44.0382 62.5928 44.7209 62.5928C45.1554 62.5928 45.5588 62.4764 45.9312 62.2436C46.3036 62.0109 46.6062 61.6463 46.839 61.1497C47.0717 60.6377 47.1881 60.0015 47.1881 59.2412V52.6544H49.9811V64.5479H47.2579V62.6626L47.3976 62.8255C47.0717 63.5082 46.614 64.028 46.0243 64.3849C45.4347 64.7263 44.7287 64.897 43.9063 64.897ZM52.1866 48.2555H54.9796V64.5479H52.1866V48.2555ZM60.5446 64.8737C59.3498 64.8737 58.3412 64.5634 57.5188 63.9427C56.712 63.3065 56.3085 62.4143 56.3085 61.2661C56.3085 60.3817 56.549 59.6912 57.0301 59.1946C57.5266 58.6826 58.1007 58.3257 58.7524 58.124C59.4041 57.9223 60.1644 57.7594 61.0333 57.6352L61.8945 57.5421C62.4996 57.4645 62.9651 57.3714 63.291 57.2628C63.6323 57.1542 63.8806 56.999 64.0358 56.7973C64.2065 56.5956 64.2918 56.3086 64.2918 55.9362C64.2918 55.4396 64.1056 55.0517 63.7332 54.7724C63.3763 54.4776 62.8643 54.3302 62.1971 54.3302C61.5454 54.3302 61.0178 54.4621 60.6144 54.7259C60.2109 54.9741 59.9627 55.3077 59.8696 55.7267H56.8206C56.9602 55.0595 57.255 54.4698 57.705 53.9578C58.1705 53.4458 58.7834 53.0423 59.5437 52.7475C60.304 52.4527 61.1962 52.3053 62.2203 52.3053C63.3065 52.3053 64.2065 52.4527 64.9202 52.7475C65.634 53.0268 66.1615 53.4458 66.5029 54.0044C66.8598 54.5629 67.0382 55.2379 67.0382 56.0293V61.685C67.0382 62.1505 67.077 62.6393 67.1546 63.1514C67.2322 63.6479 67.3253 64.1134 67.4339 64.5479H64.6642C64.509 63.9117 64.4159 63.291 64.3849 62.6859L64.5245 62.8255C64.1987 63.3996 63.6944 63.8884 63.0117 64.2918C62.3445 64.6797 61.5221 64.8737 60.5446 64.8737ZM61.3126 62.7324C61.9023 62.7324 62.4221 62.6005 62.872 62.3367C63.322 62.073 63.6711 61.7083 63.9194 61.2428C64.1677 60.7618 64.2918 60.2342 64.2918 59.6601V57.9611L64.4315 58.1938C64.2142 58.5352 63.9272 58.7912 63.5703 58.9619C63.2134 59.1171 62.6548 59.2567 61.8945 59.3808C60.9635 59.536 60.2885 59.73 59.8696 59.9627C59.4506 60.1955 59.2412 60.5989 59.2412 61.173C59.2412 61.6695 59.4351 62.0574 59.823 62.3367C60.2109 62.6005 60.7075 62.7324 61.3126 62.7324ZM69.1318 52.6544H71.8782V55.5172L71.7618 55.4241C72.0101 54.6328 72.3282 54.0121 72.7161 53.5621C73.104 53.0966 73.5773 52.763 74.1359 52.5613C74.6945 52.3596 75.3462 52.282 76.091 52.3286V54.9819C75.191 54.9043 74.485 54.9586 73.973 55.1448C73.2747 55.3931 72.7549 55.8586 72.4135 56.5413C72.0877 57.224 71.9248 58.1007 71.9248 59.1714V64.5479H69.1318V52.6544ZM0.977543 83.4539L11.1021 68.9537L11.2883 69.3028H1.21029V68.2555H12.1029V69.3494L2.00164 83.8496L1.81544 83.5005H12.3357V84.5479H0.977543V83.4539ZM18.4163 84.897C17.3457 84.897 16.3914 84.6332 15.5535 84.1056C14.7311 83.5626 14.0794 82.8178 13.5984 81.8712C13.1329 80.9247 12.9002 79.8541 12.9002 78.6593C12.9002 77.4645 13.1329 76.3939 13.5984 75.4474C14.0794 74.5009 14.7311 73.7638 15.5535 73.2363C16.3914 72.6932 17.3457 72.4217 18.4163 72.4217C19.4714 72.4217 20.4179 72.6932 21.2558 73.2363C22.0937 73.7638 22.7454 74.5009 23.2109 75.4474C23.6764 76.3939 23.9092 77.4645 23.9092 78.6593C23.9092 79.8541 23.6764 80.9247 23.2109 81.8712C22.7454 82.8178 22.0937 83.5626 21.2558 84.1056C20.4179 84.6332 19.4714 84.897 18.4163 84.897ZM18.4163 83.966C19.2697 83.966 20.0223 83.7487 20.674 83.3143C21.3412 82.8798 21.861 82.2669 22.2334 81.4756C22.6058 80.6687 22.792 79.73 22.792 78.6593C22.792 77.5887 22.6058 76.6577 22.2334 75.8663C21.861 75.0595 21.3412 74.4388 20.674 74.0044C20.0223 73.5699 19.2697 73.3527 18.4163 73.3527C17.5629 73.3527 16.8026 73.5699 16.1354 74.0044C15.4682 74.4388 14.9484 75.0595 14.576 75.8663C14.2036 76.6577 14.0174 77.5887 14.0174 78.6593C14.0174 79.73 14.2036 80.6687 14.576 81.4756C14.9484 82.2669 15.4682 82.8798 16.1354 83.3143C16.8026 83.7487 17.5629 83.966 18.4163 83.966ZM30.8324 84.897C29.7618 84.897 28.8075 84.6332 27.9696 84.1056C27.1472 83.5626 26.4955 82.8178 26.0145 81.8712C25.549 80.9247 25.3163 79.8541 25.3163 78.6593C25.3163 77.4645 25.549 76.3939 26.0145 75.4474C26.4955 74.5009 27.1472 73.7638 27.9696 73.2363C28.8075 72.6932 29.7618 72.4217 30.8324 72.4217C31.8875 72.4217 32.8341 72.6932 33.672 73.2363C34.5098 73.7638 35.1615 74.5009 35.627 75.4474C36.0925 76.3939 36.3253 77.4645 36.3253 78.6593C36.3253 79.8541 36.0925 80.9247 35.627 81.8712C35.1615 82.8178 34.5098 83.5626 33.672 84.1056C32.8341 84.6332 31.8875 84.897 30.8324 84.897ZM30.8324 83.966C31.6858 83.966 32.4384 83.7487 33.0901 83.3143C33.7573 82.8798 34.2771 82.2669 34.6495 81.4756C35.0219 80.6687 35.2081 79.73 35.2081 78.6593C35.2081 77.5887 35.0219 76.6577 34.6495 75.8663C34.2771 75.0595 33.7573 74.4388 33.0901 74.0044C32.4384 73.5699 31.6858 73.3527 30.8324 73.3527C29.979 73.3527 29.2187 73.5699 28.5515 74.0044C27.8843 74.4388 27.3645 75.0595 26.9921 75.8663C26.6197 76.6577 26.4335 77.5887 26.4335 78.6593C26.4335 79.73 26.6197 80.6687 26.9921 81.4756C27.3645 82.2669 27.8843 82.8798 28.5515 83.3143C29.2187 83.7487 29.979 83.966 30.8324 83.966ZM38.71 72.7708H39.7108V75.4474L39.6177 75.2612C39.928 74.4543 40.4013 73.7794 41.0374 73.2363C41.6736 72.6932 42.4805 72.4217 43.458 72.4217C44.4045 72.4217 45.1648 72.701 45.739 73.2596C46.3286 73.8182 46.701 74.5397 46.8561 75.4241L46.6932 75.4474C46.9725 74.5009 47.469 73.7638 48.1828 73.2363C48.9121 72.6932 49.7189 72.4217 50.6034 72.4217C51.3327 72.4217 51.9844 72.5691 52.5585 72.8639C53.1326 73.1587 53.5826 73.6164 53.9084 74.2371C54.2343 74.8422 54.3972 75.6026 54.3972 76.518V84.5479H53.3498V76.8206C53.3498 75.6879 53.1093 74.8267 52.6283 74.2371C52.1473 73.6475 51.4413 73.3527 50.5103 73.3527C49.4862 73.3527 48.6561 73.7328 48.0199 74.4931C47.3992 75.2534 47.0889 76.2853 47.0889 77.5887V84.5479H46.0183V76.937C46.0183 75.8198 45.7777 74.9431 45.2967 74.3069C44.8312 73.6707 44.164 73.3527 43.2951 73.3527C42.6744 73.3527 42.0926 73.5233 41.5495 73.8647C41.0219 74.2061 40.5952 74.7181 40.2694 75.4008C39.9435 76.0681 39.7806 76.8827 39.7806 77.8447V84.5479H38.71V72.7708ZM62.1663 84.897C61.0647 84.897 60.0871 84.641 59.2337 84.1289C58.3958 83.6013 57.7441 82.8721 57.2786 81.9411C56.8286 80.9946 56.6037 79.9084 56.6037 78.6826C56.6037 77.4723 56.8442 76.3939 57.3252 75.4474C57.8217 74.4854 58.4812 73.7406 59.3035 73.213C60.1414 72.6854 61.0492 72.4217 62.0267 72.4217C63.0818 72.4217 64.0051 72.6854 64.7964 73.213C65.6033 73.7251 66.2317 74.4621 66.6817 75.4241C67.1316 76.3706 67.3644 77.4878 67.3799 78.7757H57.3717V77.8447H66.6584L66.3558 78.2869C66.3248 76.7973 65.9214 75.6026 65.1455 74.7026C64.3697 73.8026 63.3301 73.3527 62.0267 73.3527C61.2509 73.3527 60.5293 73.5621 59.8621 73.9811C59.2104 74.4 58.6906 74.9897 58.3027 75.75C57.9148 76.4948 57.7209 77.3482 57.7209 78.3102V78.7757C57.7209 79.8153 57.907 80.7308 58.2794 81.5221C58.6518 82.298 59.1716 82.9031 59.8389 83.3376C60.5216 83.7565 61.3129 83.966 62.2129 83.966C63.1749 83.966 63.974 83.7565 64.6102 83.3376C65.2464 82.9186 65.7041 82.36 65.9834 81.6618H67.1472C66.8058 82.6238 66.2084 83.4074 65.355 84.0125C64.5171 84.6022 63.4542 84.897 62.1663 84.897ZM69.6791 72.7708H70.7032V76.0293L70.6101 75.9362C70.8429 75.0983 71.192 74.4078 71.6575 73.8647C72.123 73.3216 72.6738 72.9415 73.31 72.7242C73.9462 72.4915 74.6366 72.3984 75.3814 72.4449V73.5389C74.3418 73.4613 73.5039 73.5854 72.8678 73.9113C72.185 74.2836 71.6575 74.8578 71.2851 75.6336C70.9282 76.3939 70.7498 77.3559 70.7498 78.5197V84.5479H69.6791V72.7708Z" fill="#161616"/>
<circle cx="15.5766" cy="12.8381" r="3.59294" fill="#161616"/>
<path d="M4.13124 18.2254C3.49973 11.1209 8.60444 4.87153 11.2357 2.63492C15.2076 -2.00452 19.8192 5.29957 26.825 10.3315C32.5193 14.4214 23.1412 20.5935 18.7338 22.1723C14.1294 23.8169 4.76275 25.3299 4.13124 18.2254Z" stroke="#161616" stroke-width="2.3102"/>
</svg>
