<svg width="153" height="76" viewBox="0 0 153 76" fill="none" xmlns="http://www.w3.org/2000/svg">
<path d="M2.0158 37.4771H12.4429V40.0374H4.5062L4.92515 39.6184V44.8087L4.5062 44.3898H11.2792V46.8569H4.5062L4.92515 46.438V53.7695H2.0158V37.4771ZM18.3001 54.1187C17.1519 54.1187 16.1123 53.8549 15.1813 53.3273C14.2503 52.7842 13.521 52.0317 12.9934 51.0697C12.4659 50.1076 12.2021 49.0215 12.2021 47.8112C12.2021 46.6164 12.4659 45.538 12.9934 44.576C13.521 43.6139 14.2503 42.8691 15.1813 42.3416C16.1123 41.7985 17.1519 41.527 18.3001 41.527C19.4328 41.527 20.4646 41.7985 21.3956 42.3416C22.3266 42.8691 23.0559 43.6139 23.5835 44.576C24.111 45.538 24.3748 46.6164 24.3748 47.8112C24.3748 49.0215 24.111 50.1076 23.5835 51.0697C23.0559 52.0317 22.3266 52.7842 21.3956 53.3273C20.4646 53.8549 19.4328 54.1187 18.3001 54.1187ZM18.3001 51.861C18.9518 51.861 19.5181 51.7058 19.9991 51.3955C20.4802 51.0852 20.8526 50.6274 21.1163 50.0223C21.3956 49.4016 21.5353 48.6646 21.5353 47.8112C21.5353 46.9733 21.3956 46.2518 21.1163 45.6466C20.8526 45.0415 20.4802 44.5837 19.9991 44.2734C19.5181 43.9476 18.9518 43.7846 18.3001 43.7846C17.6484 43.7846 17.0743 43.9476 16.5777 44.2734C16.0967 44.5837 15.7166 45.0415 15.4373 45.6466C15.1735 46.2518 15.0416 46.9733 15.0416 47.8112C15.0416 48.6646 15.1735 49.4016 15.4373 50.0223C15.7166 50.6274 16.0967 51.0852 16.5777 51.3955C17.0743 51.7058 17.6484 51.861 18.3001 51.861ZM31.0799 54.1187C29.9317 54.1187 28.892 53.8549 27.961 53.3273C27.0301 52.7842 26.3008 52.0317 25.7732 51.0697C25.2457 50.1076 24.9819 49.0215 24.9819 47.8112C24.9819 46.6164 25.2457 45.538 25.7732 44.576C26.3008 43.6139 27.0301 42.8691 27.961 42.3416C28.892 41.7985 29.9317 41.527 31.0799 41.527C32.2126 41.527 33.2444 41.7985 34.1754 42.3416C35.1064 42.8691 35.8357 43.6139 36.3633 44.576C36.8908 45.538 37.1546 46.6164 37.1546 47.8112C37.1546 49.0215 36.8908 50.1076 36.3633 51.0697C35.8357 52.0317 35.1064 52.7842 34.1754 53.3273C33.2444 53.8549 32.2126 54.1187 31.0799 54.1187ZM31.0799 51.861C31.7316 51.861 32.2979 51.7058 32.7789 51.3955C33.26 51.0852 33.6324 50.6274 33.8961 50.0223C34.1754 49.4016 34.3151 48.6646 34.3151 47.8112C34.3151 46.9733 34.1754 46.2518 33.8961 45.6466C33.6324 45.0415 33.26 44.5837 32.7789 44.2734C32.2979 43.9476 31.7316 43.7846 31.0799 43.7846C30.4282 43.7846 29.8541 43.9476 29.3575 44.2734C28.8765 44.5837 28.4964 45.0415 28.2171 45.6466C27.9533 46.2518 27.8214 46.9733 27.8214 47.8112C27.8214 48.6646 27.9533 49.4016 28.2171 50.0223C28.4964 50.6274 28.8765 51.0852 29.3575 51.3955C29.8541 51.7058 30.4282 51.861 31.0799 51.861ZM43.1149 54.1187C42.1063 54.1187 41.1986 53.8626 40.3917 53.3506C39.5849 52.8385 38.9487 52.1093 38.4832 51.1627C38.0177 50.2007 37.7849 49.0835 37.7849 47.8112C37.7849 46.5388 38.0177 45.4294 38.4832 44.4829C38.9487 43.5364 39.5849 42.8071 40.3917 42.295C41.1986 41.783 42.1063 41.527 43.1149 41.527C43.9993 41.527 44.7596 41.7209 45.3958 42.1088C46.0475 42.4968 46.5285 43.001 46.8388 43.6217L46.7225 43.8312V37.4771H49.5155V53.7695H46.7225V51.861L46.8388 52.0705C46.5285 52.6911 46.0553 53.1877 45.4191 53.5601C44.7829 53.9325 44.0148 54.1187 43.1149 54.1187ZM43.6735 51.9075C44.2786 51.9075 44.8139 51.7291 45.2794 51.3722C45.7604 51.0153 46.1251 50.5266 46.3733 49.9059C46.6371 49.2852 46.769 48.587 46.769 47.8112C46.769 47.0509 46.6371 46.3604 46.3733 45.7397C46.1251 45.1191 45.7604 44.638 45.2794 44.2967C44.8139 43.9398 44.2786 43.7614 43.6735 43.7614C43.0373 43.7614 42.4865 43.932 42.021 44.2734C41.571 44.5992 41.2296 45.0647 40.9969 45.6699C40.7641 46.275 40.6477 46.9888 40.6477 47.8112C40.6477 49.068 40.9115 50.0688 41.4391 50.8136C41.9666 51.5429 42.7114 51.9075 43.6735 51.9075ZM1.06153 72.6756L11.1861 58.1754L11.3723 58.5245H1.29428V57.4771H12.1869V58.5711L2.08562 73.0713L1.89942 72.7222H12.4196V73.7695H1.06153V72.6756ZM18.5003 74.1187C17.4296 74.1187 16.4754 73.8549 15.6375 73.3273C14.8151 72.7842 14.1634 72.0394 13.6824 71.0929C13.2169 70.1464 12.9841 69.0758 12.9841 67.881C12.9841 66.6862 13.2169 65.6156 13.6824 64.6691C14.1634 63.7226 14.8151 62.9855 15.6375 62.458C16.4754 61.9149 17.4296 61.6433 18.5003 61.6433C19.5554 61.6433 20.5019 61.9149 21.3398 62.458C22.1777 62.9855 22.8294 63.7226 23.2949 64.6691C23.7604 65.6156 23.9931 66.6862 23.9931 67.881C23.9931 69.0758 23.7604 70.1464 23.2949 71.0929C22.8294 72.0394 22.1777 72.7842 21.3398 73.3273C20.5019 73.8549 19.5554 74.1187 18.5003 74.1187ZM18.5003 73.1877C19.3537 73.1877 20.1062 72.9704 20.7579 72.536C21.4252 72.1015 21.945 71.4886 22.3174 70.6973C22.6898 69.8904 22.876 68.9516 22.876 67.881C22.876 66.8104 22.6898 65.8794 22.3174 65.088C21.945 64.2812 21.4252 63.6605 20.7579 63.226C20.1062 62.7916 19.3537 62.5743 18.5003 62.5743C17.6469 62.5743 16.8866 62.7916 16.2194 63.226C15.5521 63.6605 15.0323 64.2812 14.6599 65.088C14.2875 65.8794 14.1013 66.8104 14.1013 67.881C14.1013 68.9516 14.2875 69.8904 14.6599 70.6973C15.0323 71.4886 15.5521 72.1015 16.2194 72.536C16.8866 72.9704 17.6469 73.1877 18.5003 73.1877ZM30.9164 74.1187C29.8458 74.1187 28.8915 73.8549 28.0536 73.3273C27.2312 72.7842 26.5795 72.0394 26.0985 71.0929C25.633 70.1464 25.4003 69.0758 25.4003 67.881C25.4003 66.6862 25.633 65.6156 26.0985 64.6691C26.5795 63.7226 27.2312 62.9855 28.0536 62.458C28.8915 61.9149 29.8458 61.6433 30.9164 61.6433C31.9715 61.6433 32.918 61.9149 33.7559 62.458C34.5938 62.9855 35.2455 63.7226 35.711 64.6691C36.1765 65.6156 36.4093 66.6862 36.4093 67.881C36.4093 69.0758 36.1765 70.1464 35.711 71.0929C35.2455 72.0394 34.5938 72.7842 33.7559 73.3273C32.918 73.8549 31.9715 74.1187 30.9164 74.1187ZM30.9164 73.1877C31.7698 73.1877 32.5224 72.9704 33.1741 72.536C33.8413 72.1015 34.3611 71.4886 34.7335 70.6973C35.1059 69.8904 35.2921 68.9516 35.2921 67.881C35.2921 66.8104 35.1059 65.8794 34.7335 65.088C34.3611 64.2812 33.8413 63.6605 33.1741 63.226C32.5224 62.7916 31.7698 62.5743 30.9164 62.5743C30.063 62.5743 29.3027 62.7916 28.6355 63.226C27.9683 63.6605 27.4485 64.2812 27.0761 65.088C26.7037 65.8794 26.5175 66.8104 26.5175 67.881C26.5175 68.9516 26.7037 69.8904 27.0761 70.6973C27.4485 71.4886 27.9683 72.1015 28.6355 72.536C29.3027 72.9704 30.063 73.1877 30.9164 73.1877ZM38.7939 61.9925H39.7948V64.6691L39.7017 64.4829C40.012 63.676 40.4852 63.001 41.1214 62.458C41.7576 61.9149 42.5645 61.6433 43.542 61.6433C44.4885 61.6433 45.2488 61.9226 45.8229 62.4812C46.4126 63.0398 46.785 63.7614 46.9401 64.6458L46.7772 64.6691C47.0565 63.7226 47.553 62.9855 48.2668 62.458C48.9961 61.9149 49.8029 61.6433 50.6874 61.6433C51.4167 61.6433 52.0684 61.7907 52.6425 62.0856C53.2166 62.3804 53.6666 62.8381 53.9924 63.4588C54.3183 64.0639 54.4812 64.8242 54.4812 65.7397V73.7695H53.4338V66.0423C53.4338 64.9096 53.1933 64.0484 52.7123 63.4588C52.2313 62.8691 51.5253 62.5743 50.5943 62.5743C49.5702 62.5743 48.74 62.9545 48.1039 63.7148C47.4832 64.4751 47.1729 65.507 47.1729 66.8104V73.7695H46.1022V66.1587C46.1022 65.0415 45.8617 64.1648 45.3807 63.5286C44.9152 62.8924 44.248 62.5743 43.3791 62.5743C42.7584 62.5743 42.1765 62.745 41.6335 63.0864C41.1059 63.4277 40.6792 63.9398 40.3533 64.6225C40.0275 65.2897 39.8646 66.1044 39.8646 67.0664V73.7695H38.7939V61.9925ZM62.2503 74.1187C61.1487 74.1187 60.1711 73.8626 59.3177 73.3506C58.4798 72.823 57.8281 72.0937 57.3626 71.1627C56.9126 70.2162 56.6876 69.1301 56.6876 67.9043C56.6876 66.694 56.9281 65.6156 57.4092 64.6691C57.9057 63.707 58.5651 62.9622 59.3875 62.4347C60.2254 61.9071 61.1331 61.6433 62.1107 61.6433C63.1658 61.6433 64.089 61.9071 64.8804 62.4347C65.6872 62.9467 66.3157 63.6838 66.7656 64.6458C67.2156 65.5923 67.4484 66.7095 67.4639 67.9974H57.4557V67.0664H66.7424L66.4398 67.5086C66.4088 66.019 66.0053 64.8242 65.2295 63.9243C64.4537 63.0243 63.4141 62.5743 62.1107 62.5743C61.3349 62.5743 60.6133 62.7838 59.9461 63.2028C59.2944 63.6217 58.7746 64.2113 58.3867 64.9716C57.9988 65.7164 57.8048 66.5698 57.8048 67.5319V67.9974C57.8048 69.037 57.991 69.9525 58.3634 70.7438C58.7358 71.5196 59.2556 72.1248 59.9228 72.5592C60.6056 72.9782 61.3969 73.1877 62.2969 73.1877C63.2589 73.1877 64.058 72.9782 64.6942 72.5592C65.3304 72.1403 65.7881 71.5817 66.0674 70.8835H67.2311C66.8898 71.8455 66.2924 72.6291 65.439 73.2342C64.6011 73.8238 63.5382 74.1187 62.2503 74.1187ZM69.7631 61.9925H70.7872V65.2509L70.6941 65.1578C70.9268 64.3199 71.276 63.6295 71.7415 63.0864C72.207 62.5433 72.7578 62.1631 73.394 61.9459C74.0301 61.7132 74.7206 61.6201 75.4654 61.6666V62.7605C74.4258 62.683 73.5879 62.8071 72.9517 63.1329C72.269 63.5053 71.7415 64.0794 71.3691 64.8553C71.0122 65.6156 70.8337 66.5776 70.8337 67.7413V73.7695H69.7631V61.9925Z" fill="#161616"/>
<path d="M8.64077 0.0776367C8.33505 5.4278 1.3584 5.58139 1.3584 10.4348C1.3584 16.2282 8.47894 16.2516 8.47894 21.6011" stroke="black" stroke-width="2.71655"/>
<path d="M20.5819 0.0776367C20.8876 5.4278 27.8643 5.58139 27.8643 10.4348C27.8643 16.2282 20.7437 16.2516 20.7437 21.6011" stroke="black" stroke-width="2.71655"/>
<circle cx="14.8922" cy="10.9888" r="3.53766" fill="#161616"/>
</svg>
