<svg width="153" height="78" viewBox="0 0 153 78" fill="none" xmlns="http://www.w3.org/2000/svg">
<path d="M1.93181 39.5938H12.3589V42.1541H4.42222L4.84117 41.7351V46.9254L4.42222 46.5065H11.1952V48.9736H4.42222L4.84117 48.5547V55.8862H1.93181V39.5938ZM18.2161 56.2354C17.0679 56.2354 16.0283 55.9716 15.0973 55.444C14.1663 54.9009 13.437 54.1484 12.9094 53.1863C12.3819 52.2243 12.1181 51.1382 12.1181 49.9279C12.1181 48.7331 12.3819 47.6547 12.9094 46.6927C13.437 45.7306 14.1663 44.9858 15.0973 44.4583C16.0283 43.9152 17.0679 43.6437 18.2161 43.6437C19.3488 43.6437 20.3807 43.9152 21.3117 44.4583C22.2426 44.9858 22.9719 45.7306 23.4995 46.6927C24.0271 47.6547 24.2908 48.7331 24.2908 49.9279C24.2908 51.1382 24.0271 52.2243 23.4995 53.1863C22.9719 54.1484 22.2426 54.9009 21.3117 55.444C20.3807 55.9716 19.3488 56.2354 18.2161 56.2354ZM18.2161 53.9777C18.8678 53.9777 19.4342 53.8225 19.9152 53.5122C20.3962 53.2019 20.7686 52.7441 21.0324 52.139C21.3117 51.5183 21.4513 50.7813 21.4513 49.9279C21.4513 49.09 21.3117 48.3685 21.0324 47.7633C20.7686 47.1582 20.3962 46.7004 19.9152 46.3901C19.4342 46.0642 18.8678 45.9013 18.2161 45.9013C17.5644 45.9013 16.9903 46.0642 16.4938 46.3901C16.0128 46.7004 15.6326 47.1582 15.3533 47.7633C15.0895 48.3685 14.9576 49.09 14.9576 49.9279C14.9576 50.7813 15.0895 51.5183 15.3533 52.139C15.6326 52.7441 16.0128 53.2019 16.4938 53.5122C16.9903 53.8225 17.5644 53.9777 18.2161 53.9777ZM29.5296 56.2354C28.7382 56.2354 28.04 56.0724 27.4348 55.7466C26.8452 55.4052 26.3875 54.9087 26.0616 54.257C25.7358 53.6053 25.5729 52.8062 25.5729 51.8597V43.9928H28.3426V51.4175C28.3426 52.2398 28.5055 52.8683 28.8313 53.3027C29.1572 53.7217 29.6615 53.9311 30.3442 53.9311C30.7787 53.9311 31.1821 53.8148 31.5545 53.582C31.9269 53.3493 32.2295 52.9846 32.4622 52.4881C32.695 51.9761 32.8113 51.3399 32.8113 50.5796V43.9928H35.6043V55.8862H32.8812V54.001L33.0208 54.1639C32.695 54.8466 32.2372 55.3664 31.6476 55.7233C31.058 56.0647 30.352 56.2354 29.5296 56.2354ZM37.8099 43.9928H40.533V45.9479L40.4167 45.7384C40.758 45.1177 41.2313 44.6135 41.8364 44.2255C42.4571 43.8376 43.2019 43.6437 44.0708 43.6437C44.8777 43.6437 45.5759 43.8143 46.1655 44.1557C46.7707 44.4816 47.2284 44.9703 47.5388 45.622C47.8646 46.2582 48.0275 47.034 48.0275 47.9495V55.8862H45.2345V48.1823C45.2345 47.4995 45.0716 46.9565 44.7458 46.553C44.4354 46.1341 43.9389 45.9246 43.2562 45.9246C42.7907 45.9246 42.3562 46.041 41.9528 46.2737C41.5494 46.5065 41.2235 46.8789 40.9752 47.3909C40.727 47.8874 40.6029 48.5081 40.6029 49.2529V55.8862H37.8099V43.9928ZM54.6742 56.2354C53.6656 56.2354 52.7579 55.9793 51.9511 55.4673C51.1442 54.9552 50.508 54.226 50.0425 53.2794C49.577 52.3174 49.3443 51.2002 49.3443 49.9279C49.3443 48.6555 49.577 47.5461 50.0425 46.5996C50.508 45.6531 51.1442 44.9238 51.9511 44.4117C52.7579 43.8997 53.6656 43.6437 54.6742 43.6437C55.5587 43.6437 56.319 43.8376 56.9551 44.2255C57.6068 44.6135 58.0879 45.1177 58.3982 45.7384L58.2818 45.9479V39.5938H61.0748V55.8862H58.2818V53.9777L58.3982 54.1872C58.0879 54.8078 57.6146 55.3044 56.9784 55.6768C56.3422 56.0492 55.5742 56.2354 54.6742 56.2354ZM55.2328 54.0242C55.838 54.0242 56.3733 53.8458 56.8388 53.4889C57.3198 53.132 57.6844 52.6433 57.9327 52.0226C58.1965 51.4019 58.3284 50.7037 58.3284 49.9279C58.3284 49.1676 58.1965 48.4771 57.9327 47.8564C57.6844 47.2357 57.3198 46.7547 56.8388 46.4134C56.3733 46.0565 55.838 45.8781 55.2328 45.8781C54.5966 45.8781 54.0458 46.0487 53.5803 46.3901C53.1303 46.7159 52.789 47.1814 52.5562 47.7866C52.3235 48.3917 52.2071 49.1055 52.2071 49.9279C52.2071 51.1847 52.4709 52.1855 52.9984 52.9303C53.526 53.6596 54.2708 54.0242 55.2328 54.0242ZM66.6301 56.2121C65.4353 56.2121 64.4268 55.9017 63.6044 55.2811C62.7975 54.6449 62.3941 53.7527 62.3941 52.6045C62.3941 51.72 62.6346 51.0295 63.1156 50.533C63.6121 50.021 64.1863 49.6641 64.8379 49.4624C65.4896 49.2607 66.25 49.0977 67.1189 48.9736L67.98 48.8805C68.5852 48.8029 69.0507 48.7098 69.3765 48.6012C69.7179 48.4926 69.9662 48.3374 70.1213 48.1357C70.292 47.934 70.3774 47.6469 70.3774 47.2745C70.3774 46.778 70.1912 46.3901 69.8188 46.1108C69.4619 45.816 68.9498 45.6686 68.2826 45.6686C67.6309 45.6686 67.1034 45.8005 66.6999 46.0642C66.2965 46.3125 66.0482 46.6461 65.9551 47.0651H62.9061C63.0458 46.3979 63.3406 45.8082 63.7906 45.2962C64.2561 44.7841 64.869 44.3807 65.6293 44.0859C66.3896 43.7911 67.2818 43.6437 68.3059 43.6437C69.3921 43.6437 70.292 43.7911 71.0058 44.0859C71.7195 44.3652 72.2471 44.7841 72.5885 45.3427C72.9453 45.9013 73.1238 46.5763 73.1238 47.3676V53.0234C73.1238 53.4889 73.1626 53.9777 73.2402 54.4897C73.3177 54.9863 73.4108 55.4518 73.5195 55.8862H70.7498C70.5946 55.2501 70.5015 54.6294 70.4705 54.0242L70.6101 54.1639C70.2843 54.738 69.78 55.2268 69.0972 55.6302C68.43 56.0181 67.6077 56.2121 66.6301 56.2121ZM67.3982 54.0708C67.9878 54.0708 68.5076 53.9389 68.9576 53.6751C69.4076 53.4113 69.7567 53.0467 70.005 52.5812C70.2532 52.1002 70.3774 51.5726 70.3774 50.9985V49.2995L70.517 49.5322C70.2998 49.8736 70.0127 50.1296 69.6558 50.3003C69.299 50.4554 68.7404 50.5951 67.98 50.7192C67.0491 50.8744 66.3741 51.0683 65.9551 51.3011C65.5362 51.5338 65.3267 51.9373 65.3267 52.5114C65.3267 53.0079 65.5207 53.3958 65.9086 53.6751C66.2965 53.9389 66.793 54.0708 67.3982 54.0708ZM78.7086 40.4783V51.9761C78.7086 52.6122 78.8249 53.0855 79.0577 53.3958C79.2904 53.7062 79.6939 53.8613 80.268 53.8613C80.5783 53.8613 80.9197 53.8225 81.2921 53.7449V55.7699C81.1059 55.8474 80.8499 55.9017 80.524 55.9328C80.1982 55.9793 79.8645 56.0026 79.5232 56.0026C78.8405 56.0026 78.2353 55.8862 77.7077 55.6535C77.1802 55.4207 76.7535 55.0483 76.4276 54.5363C76.1173 54.0087 75.9621 53.3182 75.9621 52.4648V40.4783H78.7086ZM81.0593 46.1573H73.9605V43.9928H81.0593V46.1573ZM82.5421 43.9928H85.3118V55.8862H82.5421V43.9928ZM82.3326 39.6637H85.498V42.5497H82.3326V39.6637ZM92.8324 56.2354C91.6842 56.2354 90.6445 55.9716 89.7136 55.444C88.7826 54.9009 88.0533 54.1484 87.5257 53.1863C86.9982 52.2243 86.7344 51.1382 86.7344 49.9279C86.7344 48.7331 86.9982 47.6547 87.5257 46.6927C88.0533 45.7306 88.7826 44.9858 89.7136 44.4583C90.6445 43.9152 91.6842 43.6437 92.8324 43.6437C93.9651 43.6437 94.9969 43.9152 95.9279 44.4583C96.8589 44.9858 97.5882 45.7306 98.1158 46.6927C98.6433 47.6547 98.9071 48.7331 98.9071 49.9279C98.9071 51.1382 98.6433 52.2243 98.1158 53.1863C97.5882 54.1484 96.8589 54.9009 95.9279 55.444C94.9969 55.9716 93.9651 56.2354 92.8324 56.2354ZM92.8324 53.9777C93.4841 53.9777 94.0504 53.8225 94.5314 53.5122C95.0125 53.2019 95.3849 52.7441 95.6486 52.139C95.9279 51.5183 96.0676 50.7813 96.0676 49.9279C96.0676 49.09 95.9279 48.3685 95.6486 47.7633C95.3849 47.1582 95.0125 46.7004 94.5314 46.3901C94.0504 46.0642 93.4841 45.9013 92.8324 45.9013C92.1807 45.9013 91.6066 46.0642 91.11 46.3901C90.629 46.7004 90.2489 47.1582 89.9696 47.7633C89.7058 48.3685 89.5739 49.09 89.5739 49.9279C89.5739 50.7813 89.7058 51.5183 89.9696 52.139C90.2489 52.7441 90.629 53.2019 91.11 53.5122C91.6066 53.8225 92.1807 53.9777 92.8324 53.9777ZM100.306 43.9928H103.029V45.9479L102.912 45.7384C103.254 45.1177 103.727 44.6135 104.332 44.2255C104.953 43.8376 105.698 43.6437 106.566 43.6437C107.373 43.6437 108.072 43.8143 108.661 44.1557C109.266 44.4816 109.724 44.9703 110.034 45.622C110.36 46.2582 110.523 47.034 110.523 47.9495V55.8862H107.73V48.1823C107.73 47.4995 107.567 46.9565 107.241 46.553C106.931 46.1341 106.435 45.9246 105.752 45.9246C105.286 45.9246 104.852 46.041 104.448 46.2737C104.045 46.5065 103.719 46.8789 103.471 47.3909C103.223 47.8874 103.098 48.5081 103.098 49.2529V55.8862H100.306V43.9928ZM0.977543 74.7923L11.1021 60.2921L11.2883 60.6412H1.21029V59.5938H12.1029V60.6878L2.00164 75.188L1.81544 74.8389H12.3357V75.8862H0.977543V74.7923ZM18.4163 76.2354C17.3457 76.2354 16.3914 75.9716 15.5535 75.444C14.7311 74.9009 14.0794 74.1561 13.5984 73.2096C13.1329 72.2631 12.9002 71.1925 12.9002 69.9977C12.9002 68.8029 13.1329 67.7323 13.5984 66.7858C14.0794 65.8393 14.7311 65.1022 15.5535 64.5747C16.3914 64.0316 17.3457 63.76 18.4163 63.76C19.4714 63.76 20.4179 64.0316 21.2558 64.5747C22.0937 65.1022 22.7454 65.8393 23.2109 66.7858C23.6764 67.7323 23.9092 68.8029 23.9092 69.9977C23.9092 71.1925 23.6764 72.2631 23.2109 73.2096C22.7454 74.1561 22.0937 74.9009 21.2558 75.444C20.4179 75.9716 19.4714 76.2354 18.4163 76.2354ZM18.4163 75.3044C19.2697 75.3044 20.0223 75.0871 20.674 74.6527C21.3412 74.2182 21.861 73.6053 22.2334 72.814C22.6058 72.0071 22.792 71.0683 22.792 69.9977C22.792 68.9271 22.6058 67.9961 22.2334 67.2047C21.861 66.3979 21.3412 65.7772 20.674 65.3427C20.0223 64.9083 19.2697 64.691 18.4163 64.691C17.5629 64.691 16.8026 64.9083 16.1354 65.3427C15.4682 65.7772 14.9484 66.3979 14.576 67.2047C14.2036 67.9961 14.0174 68.9271 14.0174 69.9977C14.0174 71.0683 14.2036 72.0071 14.576 72.814C14.9484 73.6053 15.4682 74.2182 16.1354 74.6527C16.8026 75.0871 17.5629 75.3044 18.4163 75.3044ZM30.8324 76.2354C29.7618 76.2354 28.8075 75.9716 27.9696 75.444C27.1472 74.9009 26.4955 74.1561 26.0145 73.2096C25.549 72.2631 25.3163 71.1925 25.3163 69.9977C25.3163 68.8029 25.549 67.7323 26.0145 66.7858C26.4955 65.8393 27.1472 65.1022 27.9696 64.5747C28.8075 64.0316 29.7618 63.76 30.8324 63.76C31.8875 63.76 32.8341 64.0316 33.672 64.5747C34.5098 65.1022 35.1615 65.8393 35.627 66.7858C36.0925 67.7323 36.3253 68.8029 36.3253 69.9977C36.3253 71.1925 36.0925 72.2631 35.627 73.2096C35.1615 74.1561 34.5098 74.9009 33.672 75.444C32.8341 75.9716 31.8875 76.2354 30.8324 76.2354ZM30.8324 75.3044C31.6858 75.3044 32.4384 75.0871 33.0901 74.6527C33.7573 74.2182 34.2771 73.6053 34.6495 72.814C35.0219 72.0071 35.2081 71.0683 35.2081 69.9977C35.2081 68.9271 35.0219 67.9961 34.6495 67.2047C34.2771 66.3979 33.7573 65.7772 33.0901 65.3427C32.4384 64.9083 31.6858 64.691 30.8324 64.691C29.979 64.691 29.2187 64.9083 28.5515 65.3427C27.8843 65.7772 27.3645 66.3979 26.9921 67.2047C26.6197 67.9961 26.4335 68.9271 26.4335 69.9977C26.4335 71.0683 26.6197 72.0071 26.9921 72.814C27.3645 73.6053 27.8843 74.2182 28.5515 74.6527C29.2187 75.0871 29.979 75.3044 30.8324 75.3044ZM38.71 64.1092H39.7108V66.7858L39.6177 66.5996C39.928 65.7927 40.4013 65.1177 41.0374 64.5747C41.6736 64.0316 42.4805 63.76 43.458 63.76C44.4045 63.76 45.1648 64.0393 45.739 64.5979C46.3286 65.1565 46.701 65.8781 46.8561 66.7625L46.6932 66.7858C46.9725 65.8393 47.469 65.1022 48.1828 64.5747C48.9121 64.0316 49.7189 63.76 50.6034 63.76C51.3327 63.76 51.9844 63.9074 52.5585 64.2023C53.1326 64.4971 53.5826 64.9548 53.9084 65.5755C54.2343 66.1806 54.3972 66.9409 54.3972 67.8564V75.8862H53.3498V68.159C53.3498 67.0263 53.1093 66.1651 52.6283 65.5755C52.1473 64.9858 51.4413 64.691 50.5103 64.691C49.4862 64.691 48.6561 65.0712 48.0199 65.8315C47.3992 66.5918 47.0889 67.6237 47.0889 68.9271V75.8862H46.0183V68.2754C46.0183 67.1582 45.7777 66.2815 45.2967 65.6453C44.8312 65.0091 44.164 64.691 43.2951 64.691C42.6744 64.691 42.0926 64.8617 41.5495 65.2031C41.0219 65.5444 40.5952 66.0565 40.2694 66.7392C39.9435 67.4064 39.7806 68.2211 39.7806 69.1831V75.8862H38.71V64.1092ZM62.1663 76.2354C61.0647 76.2354 60.0871 75.9793 59.2337 75.4673C58.3958 74.9397 57.7441 74.2104 57.2786 73.2794C56.8286 72.3329 56.6037 71.2468 56.6037 70.021C56.6037 68.8107 56.8442 67.7323 57.3252 66.7858C57.8217 65.8237 58.4812 65.0789 59.3035 64.5514C60.1414 64.0238 61.0492 63.76 62.0267 63.76C63.0818 63.76 64.0051 64.0238 64.7964 64.5514C65.6033 65.0634 66.2317 65.8005 66.6817 66.7625C67.1316 67.709 67.3644 68.8262 67.3799 70.1141H57.3717V69.1831H66.6584L66.3558 69.6253C66.3248 68.1357 65.9214 66.9409 65.1455 66.041C64.3697 65.141 63.3301 64.691 62.0267 64.691C61.2509 64.691 60.5293 64.9005 59.8621 65.3195C59.2104 65.7384 58.6906 66.328 58.3027 67.0883C57.9148 67.8331 57.7209 68.6865 57.7209 69.6486V70.1141C57.7209 71.1537 57.907 72.0692 58.2794 72.8605C58.6518 73.6363 59.1716 74.2415 59.8389 74.6759C60.5216 75.0949 61.3129 75.3044 62.2129 75.3044C63.1749 75.3044 63.974 75.0949 64.6102 74.6759C65.2464 74.257 65.7041 73.6984 65.9834 73.0002H67.1472C66.8058 73.9622 66.2084 74.7458 65.355 75.3509C64.5171 75.9405 63.4542 76.2354 62.1663 76.2354ZM69.6791 64.1092H70.7032V67.3676L70.6101 67.2745C70.8429 66.4366 71.192 65.7462 71.6575 65.2031C72.123 64.66 72.6738 64.2798 73.31 64.0626C73.9462 63.8299 74.6366 63.7368 75.3814 63.7833V64.8772C74.3418 64.7997 73.5039 64.9238 72.8678 65.2496C72.185 65.622 71.6575 66.1961 71.2851 66.972C70.9282 67.7323 70.7498 68.6943 70.7498 69.858V75.8862H69.6791V64.1092Z" fill="#161616"/>
<circle cx="13.4364" cy="13.0675" r="3.52693" fill="#161616"/>
<circle cx="13.4469" cy="2.28383" r="2.28383" fill="#161616"/>
<circle cx="13.4469" cy="23.7921" r="2.28383" fill="#161616"/>
<circle cx="22.7539" cy="7.66079" r="2.28383" transform="rotate(60 22.7539 7.66079)" fill="#161616"/>
<circle cx="4.12353" cy="18.4152" r="2.28383" transform="rotate(60 4.12353 18.4152)" fill="#161616"/>
<circle cx="22.7555" cy="18.4141" r="2.28383" transform="rotate(120 22.7555 18.4141)" fill="#161616"/>
<circle cx="4.1317" cy="7.66211" r="2.28383" transform="rotate(120 4.1317 7.66211)" fill="#161616"/>
</svg>
