<svg width="153" height="83" viewBox="0 0 153 83" fill="none" xmlns="http://www.w3.org/2000/svg">
<path d="M8.89099 60.5874C7.38588 60.5874 6.03594 60.2383 4.84117 59.54C3.64639 58.8263 2.70764 57.8332 2.02491 56.5609C1.34218 55.2885 1.00082 53.8455 1.00082 52.2317C1.00082 50.5404 1.36546 49.0431 2.09474 47.7397C2.83953 46.4208 3.84811 45.4045 5.12046 44.6907C6.40834 43.9614 7.85914 43.5968 9.47286 43.5968C10.8693 43.5968 12.0796 43.845 13.1037 44.3416C14.1278 44.8226 14.9347 45.451 15.5243 46.2268C16.1295 46.9871 16.5329 47.7862 16.7346 48.6241H13.7322C13.3908 47.8638 12.8787 47.2509 12.196 46.7854C11.5133 46.3199 10.5901 46.0872 9.42631 46.0872C8.40222 46.0872 7.48674 46.3277 6.67988 46.8087C5.87302 47.2897 5.23684 47.9957 4.77134 48.9267C4.32136 49.8422 4.09637 50.9361 4.09637 52.2085C4.09637 53.4188 4.3136 54.4739 4.74807 55.3738C5.19805 56.2583 5.82647 56.941 6.63333 57.422C7.45571 57.903 8.40997 58.1435 9.49613 58.1435C10.3806 58.1435 11.1719 57.9573 11.8702 57.5849C12.5839 57.2126 13.1425 56.6617 13.546 55.9324C13.9649 55.1876 14.1821 54.2799 14.1977 53.2093L14.6166 53.5817H8.58841V51.2309H16.7113V60.2383H14.0115V57.8875L14.1511 58.097C13.6856 58.8728 13.0029 59.4857 12.1029 59.9357C11.2185 60.3702 10.1478 60.5874 8.89099 60.5874ZM22.5912 60.5874C21.7999 60.5874 21.1016 60.4245 20.4965 60.0986C19.9069 59.7573 19.4491 59.2607 19.1233 58.609C18.7974 57.9573 18.6345 57.1582 18.6345 56.2117V48.3448H21.4042V55.7695C21.4042 56.5919 21.5671 57.2203 21.893 57.6548C22.2188 58.0737 22.7231 58.2832 23.4058 58.2832C23.8403 58.2832 24.2437 58.1668 24.6161 57.9341C24.9885 57.7013 25.2911 57.3367 25.5239 56.8402C25.7566 56.3281 25.873 55.6919 25.873 54.9316V48.3448H28.666V60.2383H25.9428V58.353L26.0824 58.5159C25.7566 59.1987 25.2989 59.7185 24.7092 60.0754C24.1196 60.4167 23.4136 60.5874 22.5912 60.5874ZM34.3627 44.8303V56.3281C34.3627 56.9643 34.4791 57.4375 34.7119 57.7479C34.9446 58.0582 35.348 58.2134 35.9222 58.2134C36.2325 58.2134 36.5739 58.1746 36.9462 58.097V60.1219C36.76 60.1995 36.504 60.2538 36.1782 60.2848C35.8523 60.3314 35.5187 60.3547 35.1774 60.3547C34.4946 60.3547 33.8895 60.2383 33.3619 60.0055C32.8344 59.7728 32.4077 59.4004 32.0818 58.8883C31.7715 58.3608 31.6163 57.6703 31.6163 56.8169V44.8303H34.3627ZM36.7135 50.5094H29.6147V48.3448H36.7135V50.5094ZM0.977543 79.1444L11.1021 64.6441L11.2883 64.9933H1.21029V63.9459H12.1029V65.0398L2.00164 79.54L1.81544 79.1909H12.3357V80.2383H0.977543V79.1444ZM18.4163 80.5874C17.3457 80.5874 16.3914 80.3236 15.5535 79.7961C14.7311 79.253 14.0794 78.5082 13.5984 77.5617C13.1329 76.6152 12.9002 75.5445 12.9002 74.3497C12.9002 73.155 13.1329 72.0843 13.5984 71.1378C14.0794 70.1913 14.7311 69.4543 15.5535 68.9267C16.3914 68.3836 17.3457 68.1121 18.4163 68.1121C19.4714 68.1121 20.4179 68.3836 21.2558 68.9267C22.0937 69.4543 22.7454 70.1913 23.2109 71.1378C23.6764 72.0843 23.9092 73.155 23.9092 74.3497C23.9092 75.5445 23.6764 76.6152 23.2109 77.5617C22.7454 78.5082 22.0937 79.253 21.2558 79.7961C20.4179 80.3236 19.4714 80.5874 18.4163 80.5874ZM18.4163 79.6564C19.2697 79.6564 20.0223 79.4392 20.674 79.0047C21.3412 78.5703 21.861 77.9573 22.2334 77.166C22.6058 76.3591 22.792 75.4204 22.792 74.3497C22.792 73.2791 22.6058 72.3481 22.2334 71.5568C21.861 70.7499 21.3412 70.1292 20.674 69.6948C20.0223 69.2603 19.2697 69.0431 18.4163 69.0431C17.5629 69.0431 16.8026 69.2603 16.1354 69.6948C15.4682 70.1292 14.9484 70.7499 14.576 71.5568C14.2036 72.3481 14.0174 73.2791 14.0174 74.3497C14.0174 75.4204 14.2036 76.3591 14.576 77.166C14.9484 77.9573 15.4682 78.5703 16.1354 79.0047C16.8026 79.4392 17.5629 79.6564 18.4163 79.6564ZM30.8324 80.5874C29.7618 80.5874 28.8075 80.3236 27.9696 79.7961C27.1472 79.253 26.4955 78.5082 26.0145 77.5617C25.549 76.6152 25.3163 75.5445 25.3163 74.3497C25.3163 73.155 25.549 72.0843 26.0145 71.1378C26.4955 70.1913 27.1472 69.4543 27.9696 68.9267C28.8075 68.3836 29.7618 68.1121 30.8324 68.1121C31.8875 68.1121 32.8341 68.3836 33.672 68.9267C34.5098 69.4543 35.1615 70.1913 35.627 71.1378C36.0925 72.0843 36.3253 73.155 36.3253 74.3497C36.3253 75.5445 36.0925 76.6152 35.627 77.5617C35.1615 78.5082 34.5098 79.253 33.672 79.7961C32.8341 80.3236 31.8875 80.5874 30.8324 80.5874ZM30.8324 79.6564C31.6858 79.6564 32.4384 79.4392 33.0901 79.0047C33.7573 78.5703 34.2771 77.9573 34.6495 77.166C35.0219 76.3591 35.2081 75.4204 35.2081 74.3497C35.2081 73.2791 35.0219 72.3481 34.6495 71.5568C34.2771 70.7499 33.7573 70.1292 33.0901 69.6948C32.4384 69.2603 31.6858 69.0431 30.8324 69.0431C29.979 69.0431 29.2187 69.2603 28.5515 69.6948C27.8843 70.1292 27.3645 70.7499 26.9921 71.5568C26.6197 72.3481 26.4335 73.2791 26.4335 74.3497C26.4335 75.4204 26.6197 76.3591 26.9921 77.166C27.3645 77.9573 27.8843 78.5703 28.5515 79.0047C29.2187 79.4392 29.979 79.6564 30.8324 79.6564ZM38.71 68.4612H39.7108V71.1378L39.6177 70.9516C39.928 70.1448 40.4013 69.4698 41.0374 68.9267C41.6736 68.3836 42.4805 68.1121 43.458 68.1121C44.4045 68.1121 45.1648 68.3914 45.739 68.95C46.3286 69.5086 46.701 70.2301 46.8561 71.1145L46.6932 71.1378C46.9725 70.1913 47.469 69.4543 48.1828 68.9267C48.9121 68.3836 49.7189 68.1121 50.6034 68.1121C51.3327 68.1121 51.9844 68.2595 52.5585 68.5543C53.1326 68.8491 53.5826 69.3069 53.9084 69.9275C54.2343 70.5327 54.3972 71.293 54.3972 72.2085V80.2383H53.3498V72.511C53.3498 71.3783 53.1093 70.5172 52.6283 69.9275C52.1473 69.3379 51.4413 69.0431 50.5103 69.0431C49.4862 69.0431 48.6561 69.4232 48.0199 70.1836C47.3992 70.9439 47.0889 71.9757 47.0889 73.2791V80.2383H46.0183V72.6274C46.0183 71.5102 45.7777 70.6335 45.2967 69.9974C44.8312 69.3612 44.164 69.0431 43.2951 69.0431C42.6744 69.0431 42.0926 69.2138 41.5495 69.5551C41.0219 69.8965 40.5952 70.4085 40.2694 71.0913C39.9435 71.7585 39.7806 72.5731 39.7806 73.5351V80.2383H38.71V68.4612ZM62.1663 80.5874C61.0647 80.5874 60.0871 80.3314 59.2337 79.8193C58.3958 79.2918 57.7441 78.5625 57.2786 77.6315C56.8286 76.685 56.6037 75.5988 56.6037 74.373C56.6037 73.1627 56.8442 72.0843 57.3252 71.1378C57.8217 70.1758 58.4812 69.431 59.3035 68.9034C60.1414 68.3759 61.0492 68.1121 62.0267 68.1121C63.0818 68.1121 64.0051 68.3759 64.7964 68.9034C65.6033 69.4155 66.2317 70.1525 66.6817 71.1145C67.1316 72.0611 67.3644 73.1782 67.3799 74.4661H57.3717V73.5351H66.6584L66.3558 73.9773C66.3248 72.4878 65.9214 71.293 65.1455 70.393C64.3697 69.4931 63.3301 69.0431 62.0267 69.0431C61.2509 69.0431 60.5293 69.2526 59.8621 69.6715C59.2104 70.0905 58.6906 70.6801 58.3027 71.4404C57.9148 72.1852 57.7209 73.0386 57.7209 74.0006V74.4661C57.7209 75.5057 57.907 76.4212 58.2794 77.2126C58.6518 77.9884 59.1716 78.5935 59.8389 79.028C60.5216 79.4469 61.3129 79.6564 62.2129 79.6564C63.1749 79.6564 63.974 79.4469 64.6102 79.028C65.2464 78.609 65.7041 78.0504 65.9834 77.3522H67.1472C66.8058 78.3142 66.2084 79.0978 65.355 79.703C64.5171 80.2926 63.4542 80.5874 62.1663 80.5874ZM69.6791 68.4612H70.7032V71.7197L70.6101 71.6266C70.8429 70.7887 71.192 70.0982 71.6575 69.5551C72.123 69.0121 72.6738 68.6319 73.31 68.4147C73.9462 68.1819 74.6366 68.0888 75.3814 68.1354V69.2293C74.3418 69.1517 73.5039 69.2758 72.8678 69.6017C72.185 69.9741 71.6575 70.5482 71.2851 71.324C70.9282 72.0843 70.7498 73.0464 70.7498 74.2101V80.2383H69.6791V68.4612Z" fill="#161616"/>
<circle cx="13.6602" cy="12.103" r="3.3877" fill="#161616"/>
<path d="M2.57666 1.71387C3.2542 3.74649 4.60928 8.57961 4.60928 11.6511C4.60928 14.7227 3.40477 20.0075 2.80251 22.2659" stroke="#161616" stroke-width="2.71016" stroke-linecap="square"/>
<path d="M24.4983 22.2666C23.8208 20.234 22.4657 15.4009 22.4657 12.3293C22.4657 9.25782 23.6702 3.973 24.2724 1.71453" stroke="#161616" stroke-width="2.71016" stroke-linecap="square"/>
</svg>
