<svg width="154" height="85" viewBox="0 0 154 85" fill="none" xmlns="http://www.w3.org/2000/svg">
<path d="M16.1854 46.6344V62.9268H13.2528V46.6344H16.1854ZM3.22136 62.9268V46.6344H6.13072V62.9268H3.22136ZM5.75832 55.9443V53.4306H13.6252V55.9443H5.75832ZM23.756 63.2759C22.6078 63.2759 21.5682 63.0121 20.6372 62.4845C19.7062 61.9415 18.9769 61.1889 18.4494 60.2269C17.9218 59.2649 17.658 58.1787 17.658 56.9684C17.658 55.7736 17.9218 54.6952 18.4494 53.7332C18.9769 52.7712 19.7062 52.0264 20.6372 51.4988C21.5682 50.9557 22.6078 50.6842 23.756 50.6842C24.8887 50.6842 25.9206 50.9557 26.8516 51.4988C27.7826 52.0264 28.5119 52.7712 29.0394 53.7332C29.567 54.6952 29.8308 55.7736 29.8308 56.9684C29.8308 58.1787 29.567 59.2649 29.0394 60.2269C28.5119 61.1889 27.7826 61.9415 26.8516 62.4845C25.9206 63.0121 24.8887 63.2759 23.756 63.2759ZM23.756 61.0182C24.4077 61.0182 24.9741 60.8631 25.4551 60.5527C25.9361 60.2424 26.3085 59.7847 26.5723 59.1795C26.8516 58.5588 26.9912 57.8218 26.9912 56.9684C26.9912 56.1305 26.8516 55.409 26.5723 54.8038C26.3085 54.1987 25.9361 53.741 25.4551 53.4306C24.9741 53.1048 24.4077 52.9419 23.756 52.9419C23.1043 52.9419 22.5302 53.1048 22.0337 53.4306C21.5527 53.741 21.1725 54.1987 20.8932 54.8038C20.6295 55.409 20.4976 56.1305 20.4976 56.9684C20.4976 57.8218 20.6295 58.5588 20.8932 59.1795C21.1725 59.7847 21.5527 60.2424 22.0337 60.5527C22.5302 60.8631 23.1043 61.0182 23.756 61.0182ZM31.2292 51.0333H33.9756V53.8961L33.8592 53.803C34.1075 53.0117 34.4256 52.391 34.8135 51.941C35.2014 51.4755 35.6747 51.1419 36.2333 50.9402C36.7919 50.7385 37.4435 50.6609 38.1883 50.7075V53.3608C37.2884 53.2832 36.5824 53.3375 36.0703 53.5237C35.3721 53.772 34.8523 54.2375 34.5109 54.9202C34.1851 55.6029 34.0221 56.4796 34.0221 57.5503V62.9268H31.2292V51.0333ZM39.1903 51.0333H41.8902V52.872L41.7738 52.7091C42.0687 52.0574 42.5186 51.5609 43.1238 51.2195C43.7289 50.8626 44.4117 50.6842 45.172 50.6842C45.9323 50.6842 46.5995 50.8782 47.1736 51.2661C47.7632 51.654 48.1899 52.1971 48.4537 52.8953L48.221 52.872C48.5468 52.2048 49.0434 51.6773 49.7106 51.2893C50.3778 50.8859 51.1381 50.6842 51.9915 50.6842C52.7984 50.6842 53.5121 50.8549 54.1328 51.1962C54.7534 51.5221 55.2345 52.0031 55.5758 52.6393C55.9172 53.2755 56.0879 54.0358 56.0879 54.9202V62.9268H53.2949V55.3159C53.2949 54.5711 53.1397 54.0047 52.8294 53.6168C52.5191 53.2134 52.0536 53.0117 51.4329 53.0117C50.6881 53.0117 50.0985 53.2755 49.664 53.803C49.2451 54.3306 49.0356 55.0909 49.0356 56.084V62.9268H46.2426V55.3857C46.2426 54.6254 46.0797 54.0435 45.7538 53.6401C45.4435 53.2212 44.9858 53.0117 44.3806 53.0117C43.8841 53.0117 43.4574 53.1281 43.1005 53.3608C42.7436 53.5935 42.4643 53.9427 42.2626 54.4082C42.0764 54.8737 41.9833 55.4323 41.9833 56.084V62.9268H39.1903V51.0333ZM63.4819 63.2759C62.3337 63.2759 61.2941 63.0121 60.3631 62.4845C59.4321 61.9415 58.7028 61.1889 58.1752 60.2269C57.6477 59.2649 57.3839 58.1787 57.3839 56.9684C57.3839 55.7736 57.6477 54.6952 58.1752 53.7332C58.7028 52.7712 59.4321 52.0264 60.3631 51.4988C61.2941 50.9557 62.3337 50.6842 63.4819 50.6842C64.6146 50.6842 65.6465 50.9557 66.5774 51.4988C67.5084 52.0264 68.2377 52.7712 68.7653 53.7332C69.2928 54.6952 69.5566 55.7736 69.5566 56.9684C69.5566 58.1787 69.2928 59.2649 68.7653 60.2269C68.2377 61.1889 67.5084 61.9415 66.5774 62.4845C65.6465 63.0121 64.6146 63.2759 63.4819 63.2759ZM63.4819 61.0182C64.1336 61.0182 64.6999 60.8631 65.181 60.5527C65.662 60.2424 66.0344 59.7847 66.2982 59.1795C66.5774 58.5588 66.7171 57.8218 66.7171 56.9684C66.7171 56.1305 66.5774 55.409 66.2982 54.8038C66.0344 54.1987 65.662 53.741 65.181 53.4306C64.6999 53.1048 64.1336 52.9419 63.4819 52.9419C62.8302 52.9419 62.2561 53.1048 61.7596 53.4306C61.2785 53.741 60.8984 54.1987 60.6191 54.8038C60.3553 55.409 60.2234 56.1305 60.2234 56.9684C60.2234 57.8218 60.3553 58.5588 60.6191 59.1795C60.8984 59.7847 61.2785 60.2424 61.7596 60.5527C62.2561 60.8631 62.8302 61.0182 63.4819 61.0182ZM70.955 51.0333H73.6782V52.9884L73.5618 52.7789C73.9032 52.1583 74.3764 51.654 74.9816 51.2661C75.6022 50.8782 76.347 50.6842 77.216 50.6842C78.0228 50.6842 78.7211 50.8549 79.3107 51.1962C79.9158 51.5221 80.3736 52.0109 80.6839 52.6626C81.0098 53.2987 81.1727 54.0746 81.1727 54.99V62.9268H78.3797V55.2228C78.3797 54.5401 78.2168 53.997 77.8909 53.5935C77.5806 53.1746 77.0841 52.9651 76.4013 52.9651C75.9358 52.9651 75.5014 53.0815 75.0979 53.3143C74.6945 53.547 74.3687 53.9194 74.1204 54.4314C73.8721 54.928 73.748 55.5486 73.748 56.2934V62.9268H70.955V51.0333ZM88.634 63.2759C87.3771 63.2759 86.2832 63.0199 85.3522 62.5078C84.4212 61.9802 83.7075 61.2432 83.211 60.2967C82.7144 59.3502 82.4662 58.2485 82.4662 56.9917C82.4662 55.7814 82.7299 54.6952 83.2575 53.7332C83.8006 52.7712 84.5299 52.0264 85.4453 51.4988C86.3608 50.9557 87.3616 50.6842 88.4478 50.6842C89.627 50.6842 90.6589 50.9635 91.5433 51.5221C92.4433 52.0807 93.1415 52.8953 93.6381 53.9659C94.1501 55.0211 94.4139 56.2934 94.4294 57.783H84.0488V55.7348H92.6838L91.7063 56.6193C91.7063 55.5021 91.427 54.6021 90.8684 53.9194C90.3098 53.2367 89.5262 52.8953 88.5176 52.8953C87.9125 52.8953 87.3616 53.0505 86.8651 53.3608C86.3841 53.6556 86.0039 54.0746 85.7246 54.6176C85.4453 55.1452 85.3057 55.7271 85.3057 56.3633V57.4572C85.3057 58.1554 85.4453 58.7838 85.7246 59.3424C86.0194 59.8855 86.4229 60.3122 86.9349 60.6225C87.447 60.9329 88.0288 61.088 88.6805 61.088C89.3012 61.088 89.821 60.9717 90.24 60.7389C90.6589 60.5062 90.9615 60.1958 91.1477 59.8079H94.1036C93.7777 60.8631 93.1338 61.7087 92.1718 62.3449C91.2253 62.9655 90.046 63.2759 88.634 63.2759ZM2.26709 81.8328L12.3916 67.3326L12.5778 67.6817H2.49984V66.6344H13.3925V67.7283L3.29119 82.2285L3.10499 81.8794H13.6252V82.9268H2.26709V81.8328ZM19.7059 83.2759C18.6352 83.2759 17.6809 83.0121 16.843 82.4845C16.0207 81.9415 15.369 81.1967 14.888 80.2502C14.4225 79.3036 14.1897 78.233 14.1897 77.0382C14.1897 75.8434 14.4225 74.7728 14.888 73.8263C15.369 72.8798 16.0207 72.1428 16.843 71.6152C17.6809 71.0721 18.6352 70.8006 19.7059 70.8006C20.761 70.8006 21.7075 71.0721 22.5454 71.6152C23.3833 72.1428 24.035 72.8798 24.5005 73.8263C24.966 74.7728 25.1987 75.8434 25.1987 77.0382C25.1987 78.233 24.966 79.3036 24.5005 80.2502C24.035 81.1967 23.3833 81.9415 22.5454 82.4845C21.7075 83.0121 20.761 83.2759 19.7059 83.2759ZM19.7059 82.3449C20.5593 82.3449 21.3118 82.1277 21.9635 81.6932C22.6307 81.2587 23.1505 80.6458 23.5229 79.8545C23.8953 79.0476 24.0815 78.1089 24.0815 77.0382C24.0815 75.9676 23.8953 75.0366 23.5229 74.2452C23.1505 73.4384 22.6307 72.8177 21.9635 72.3833C21.3118 71.9488 20.5593 71.7316 19.7059 71.7316C18.8524 71.7316 18.0921 71.9488 17.4249 72.3833C16.7577 72.8177 16.2379 73.4384 15.8655 74.2452C15.4931 75.0366 15.3069 75.9676 15.3069 77.0382C15.3069 78.1089 15.4931 79.0476 15.8655 79.8545C16.2379 80.6458 16.7577 81.2587 17.4249 81.6932C18.0921 82.1277 18.8524 82.3449 19.7059 82.3449ZM32.122 83.2759C31.0513 83.2759 30.0971 83.0121 29.2592 82.4845C28.4368 81.9415 27.7851 81.1967 27.3041 80.2502C26.8386 79.3036 26.6058 78.233 26.6058 77.0382C26.6058 75.8434 26.8386 74.7728 27.3041 73.8263C27.7851 72.8798 28.4368 72.1428 29.2592 71.6152C30.0971 71.0721 31.0513 70.8006 32.122 70.8006C33.1771 70.8006 34.1236 71.0721 34.9615 71.6152C35.7994 72.1428 36.4511 72.8798 36.9166 73.8263C37.3821 74.7728 37.6148 75.8434 37.6148 77.0382C37.6148 78.233 37.3821 79.3036 36.9166 80.2502C36.4511 81.1967 35.7994 81.9415 34.9615 82.4845C34.1236 83.0121 33.1771 83.2759 32.122 83.2759ZM32.122 82.3449C32.9754 82.3449 33.7279 82.1277 34.3796 81.6932C35.0468 81.2587 35.5666 80.6458 35.939 79.8545C36.3114 79.0476 36.4976 78.1089 36.4976 77.0382C36.4976 75.9676 36.3114 75.0366 35.939 74.2452C35.5666 73.4384 35.0468 72.8177 34.3796 72.3833C33.7279 71.9488 32.9754 71.7316 32.122 71.7316C31.2686 71.7316 30.5083 71.9488 29.841 72.3833C29.1738 72.8177 28.654 73.4384 28.2816 74.2452C27.9092 75.0366 27.723 75.9676 27.723 77.0382C27.723 78.1089 27.9092 79.0476 28.2816 79.8545C28.654 80.6458 29.1738 81.2587 29.841 81.6932C30.5083 82.1277 31.2686 82.3449 32.122 82.3449ZM39.9995 71.1497H41.0003V73.8263L40.9072 73.6401C41.2176 72.8332 41.6908 72.1583 42.327 71.6152C42.9632 71.0721 43.77 70.8006 44.7476 70.8006C45.6941 70.8006 46.4544 71.0799 47.0285 71.6385C47.6181 72.1971 47.9905 72.9186 48.1457 73.803L47.9828 73.8263C48.2621 72.8798 48.7586 72.1428 49.4724 71.6152C50.2016 71.0721 51.0085 70.8006 51.8929 70.8006C52.6222 70.8006 53.2739 70.948 53.848 71.2428C54.4221 71.5376 54.8721 71.9953 55.198 72.616C55.5238 73.2212 55.6867 73.9815 55.6867 74.8969V82.9268H54.6394V75.1995C54.6394 74.0668 54.3989 73.2056 53.9179 72.616C53.4368 72.0264 52.7308 71.7316 51.7998 71.7316C50.7758 71.7316 49.9456 72.1117 49.3094 72.872C48.6888 73.6323 48.3784 74.6642 48.3784 75.9676V82.9268H47.3078V75.3159C47.3078 74.1987 47.0673 73.322 46.5863 72.6858C46.1208 72.0497 45.4536 71.7316 44.5846 71.7316C43.964 71.7316 43.3821 71.9022 42.839 72.2436C42.3115 72.585 41.8848 73.097 41.5589 73.7797C41.2331 74.447 41.0701 75.2616 41.0701 76.2236V82.9268H39.9995V71.1497ZM63.4559 83.2759C62.3542 83.2759 61.3767 83.0199 60.5233 82.5078C59.6854 81.9802 59.0337 81.251 58.5682 80.32C58.1182 79.3735 57.8932 78.2873 57.8932 77.0615C57.8932 75.8512 58.1337 74.7728 58.6147 73.8263C59.1113 72.8643 59.7707 72.1195 60.5931 71.5919C61.431 71.0643 62.3387 70.8006 63.3162 70.8006C64.3714 70.8006 65.2946 71.0643 66.086 71.5919C66.8928 72.104 67.5212 72.841 67.9712 73.803C68.4212 74.7495 68.6539 75.8667 68.6695 77.1546H58.6613V76.2236H67.9479L67.6454 76.6658C67.6143 75.1762 67.2109 73.9815 66.4351 73.0815C65.6592 72.1815 64.6196 71.7316 63.3162 71.7316C62.5404 71.7316 61.8189 71.941 61.1517 72.36C60.5 72.7789 59.9802 73.3686 59.5923 74.1289C59.2044 74.8737 59.0104 75.7271 59.0104 76.6891V77.1546C59.0104 78.1942 59.1966 79.1097 59.569 79.901C59.9414 80.6769 60.4612 81.282 61.1284 81.7165C61.8111 82.1354 62.6025 82.3449 63.5024 82.3449C64.4645 82.3449 65.2636 82.1354 65.8998 81.7165C66.5359 81.2975 66.9937 80.7389 67.273 80.0407H68.4367C68.0953 81.0027 67.498 81.7863 66.6445 82.3914C65.8067 82.9811 64.7438 83.2759 63.4559 83.2759ZM70.9687 71.1497H71.9928V74.4082L71.8997 74.3151C72.1324 73.4772 72.4815 72.7867 72.947 72.2436C73.4125 71.7005 73.9634 71.3204 74.5995 71.1031C75.2357 70.8704 75.9262 70.7773 76.671 70.8238V71.9178C75.6314 71.8402 74.7935 71.9643 74.1573 72.2902C73.4746 72.6626 72.947 73.2367 72.5746 74.0125C72.2177 74.7728 72.0393 75.7348 72.0393 76.8986V82.9268H70.9687V71.1497Z" fill="#161616"/>
<path d="M4.79163 3.22738C2.64658 5.33701 1.31641 8.27263 1.31641 11.5189C1.31641 17.9415 6.52291 23.148 12.9455 23.148C19.368 23.148 24.5745 17.9415 24.5745 11.5189C24.5745 8.24482 23.2214 5.28673 21.044 3.17334" stroke="#161616" stroke-width="2.63299" stroke-linecap="square"/>
<circle cx="12.5785" cy="11.217" r="3.59294" fill="#161616"/>
<circle cx="12.5858" cy="2.22159" r="2.22159" fill="#161616"/>
</svg>
