<svg width="153" height="77" viewBox="0 0 153 77" fill="none" xmlns="http://www.w3.org/2000/svg">
<path d="M24.4321 8.7105L24.4321 1.35841L1.76319 1.35842L1.76319 8.50628M24.4321 14.0203C23.986 17.2167 21.1292 23.6094 13.2713 23.6094C5.41337 23.6094 2.16772 17.0612 1.52713 13.7871" stroke="black" stroke-width="2.71655"/>
<path d="M1.93181 38.2765H4.84117V54.5688H1.93181V38.2765ZM7.18165 42.6754H9.88153V44.5141L9.76515 44.3512C10.06 43.6995 10.5099 43.203 11.1151 42.8616C11.7202 42.5047 12.403 42.3263 13.1633 42.3263C13.9236 42.3263 14.5908 42.5202 15.1649 42.9082C15.7545 43.2961 16.1813 43.8391 16.445 44.5374L16.2123 44.5141C16.5381 43.8469 17.0347 43.3193 17.7019 42.9314C18.3691 42.528 19.1294 42.3263 19.9828 42.3263C20.7897 42.3263 21.5034 42.497 22.1241 42.8383C22.7448 43.1642 23.2258 43.6452 23.5671 44.2814C23.9085 44.9175 24.0792 45.6779 24.0792 46.5623V54.5688H21.2862V46.958C21.2862 46.2132 21.131 45.6468 20.8207 45.2589C20.5104 44.8555 20.0449 44.6538 19.4242 44.6538C18.6794 44.6538 18.0898 44.9175 17.6553 45.4451C17.2364 45.9727 17.0269 46.733 17.0269 47.726V54.5688H14.2339V47.0278C14.2339 46.2675 14.071 45.6856 13.7452 45.2822C13.4348 44.8632 12.9771 44.6538 12.3719 44.6538C11.8754 44.6538 11.4487 44.7701 11.0918 45.0029C10.7349 45.2356 10.4556 45.5848 10.2539 46.0503C10.0677 46.5158 9.97463 47.0744 9.97463 47.726V54.5688H7.18165V42.6754ZM26.1665 42.6754H28.8664V44.5141L28.7501 44.3512C29.0449 43.6995 29.4948 43.203 30.1 42.8616C30.7051 42.5047 31.3879 42.3263 32.1482 42.3263C32.9085 42.3263 33.5757 42.5202 34.1498 42.9082C34.7394 43.2961 35.1661 43.8391 35.4299 44.5374L35.1972 44.5141C35.523 43.8469 36.0196 43.3193 36.6868 42.9314C37.354 42.528 38.1143 42.3263 38.9677 42.3263C39.7746 42.3263 40.4883 42.497 41.109 42.8383C41.7297 43.1642 42.2107 43.6452 42.552 44.2814C42.8934 44.9175 43.0641 45.6779 43.0641 46.5623V54.5688H40.2711V46.958C40.2711 46.2132 40.1159 45.6468 39.8056 45.2589C39.4953 44.8555 39.0298 44.6538 38.4091 44.6538C37.6643 44.6538 37.0747 44.9175 36.6402 45.4451C36.2213 45.9727 36.0118 46.733 36.0118 47.726V54.5688H33.2188V47.0278C33.2188 46.2675 33.0559 45.6856 32.73 45.2822C32.4197 44.8632 31.962 44.6538 31.3568 44.6538C30.8603 44.6538 30.4336 44.7701 30.0767 45.0029C29.7198 45.2356 29.4405 45.5848 29.2388 46.0503C29.0526 46.5158 28.9595 47.0744 28.9595 47.726V54.5688H26.1665V42.6754ZM48.9918 54.918C48.2004 54.918 47.5022 54.755 46.8971 54.4292C46.3074 54.0878 45.8497 53.5913 45.5238 52.9396C45.198 52.2879 45.0351 51.4888 45.0351 50.5423V42.6754H47.8048V50.1001C47.8048 50.9225 47.9677 51.5509 48.2935 51.9853C48.6194 52.4043 49.1237 52.6138 49.8064 52.6138C50.2409 52.6138 50.6443 52.4974 51.0167 52.2646C51.3891 52.0319 51.6917 51.6673 51.9244 51.1707C52.1572 50.6587 52.2735 50.0225 52.2735 49.2622V42.6754H55.0665V54.5688H52.3434V52.6836L52.483 52.8465C52.1572 53.5292 51.6994 54.049 51.1098 54.4059C50.5202 54.7473 49.8142 54.918 48.9918 54.918ZM57.2721 42.6754H59.9952V44.6305L59.8789 44.421C60.2202 43.8004 60.6935 43.2961 61.2986 42.9082C61.9193 42.5202 62.6641 42.3263 63.533 42.3263C64.3399 42.3263 65.0381 42.497 65.6278 42.8383C66.2329 43.1642 66.6906 43.6529 67.001 44.3046C67.3268 44.9408 67.4897 45.7167 67.4897 46.6321V54.5688H64.6968V46.8649C64.6968 46.1821 64.5338 45.6391 64.208 45.2356C63.8977 44.8167 63.4011 44.6072 62.7184 44.6072C62.2529 44.6072 61.8184 44.7236 61.415 44.9563C61.0116 45.1891 60.6857 45.5615 60.4375 46.0735C60.1892 46.5701 60.0651 47.1907 60.0651 47.9355V54.5688H57.2721V42.6754ZM74.951 54.918C73.6942 54.918 72.6003 54.6619 71.6693 54.1499C70.7383 53.6223 70.0245 52.8853 69.528 51.9388C69.0315 50.9923 68.7832 49.8906 68.7832 48.6338C68.7832 47.4235 69.047 46.3373 69.5746 45.3753C70.1176 44.4133 70.8469 43.6685 71.7624 43.1409C72.6779 42.5978 73.6787 42.3263 74.7648 42.3263C75.9441 42.3263 76.976 42.6056 77.8604 43.1642C78.7604 43.7228 79.4586 44.5374 79.9551 45.608C80.4672 46.6632 80.731 47.9355 80.7465 49.4251H70.3659V47.3769H79.0009L78.0233 48.2614C78.0233 47.1442 77.744 46.2442 77.1854 45.5615C76.6268 44.8788 75.8432 44.5374 74.8347 44.5374C74.2295 44.5374 73.6787 44.6926 73.1822 45.0029C72.7011 45.2977 72.321 45.7167 72.0417 46.2597C71.7624 46.7873 71.6227 47.3692 71.6227 48.0053V49.0993C71.6227 49.7975 71.7624 50.4259 72.0417 50.9845C72.3365 51.5276 72.7399 51.9543 73.252 52.2646C73.764 52.575 74.3459 52.7301 74.9976 52.7301C75.6183 52.7301 76.1381 52.6138 76.557 52.381C76.976 52.1483 77.2785 51.8379 77.4647 51.45H80.4206C80.0948 52.5051 79.4508 53.3508 78.4888 53.987C77.5423 54.6076 76.3631 54.918 74.951 54.918ZM0.977543 73.4749L11.1021 58.9747L11.2883 59.3238H1.21029V58.2765H12.1029V59.3704L2.00164 73.8706L1.81544 73.5215H12.3357V74.5688H0.977543V73.4749ZM18.4163 74.918C17.3457 74.918 16.3914 74.6542 15.5535 74.1266C14.7311 73.5835 14.0794 72.8388 13.5984 71.8922C13.1329 70.9457 12.9002 69.8751 12.9002 68.6803C12.9002 67.4855 13.1329 66.4149 13.5984 65.4684C14.0794 64.5219 14.7311 63.7848 15.5535 63.2573C16.3914 62.7142 17.3457 62.4427 18.4163 62.4427C19.4714 62.4427 20.4179 62.7142 21.2558 63.2573C22.0937 63.7848 22.7454 64.5219 23.2109 65.4684C23.6764 66.4149 23.9092 67.4855 23.9092 68.6803C23.9092 69.8751 23.6764 70.9457 23.2109 71.8922C22.7454 72.8388 22.0937 73.5835 21.2558 74.1266C20.4179 74.6542 19.4714 74.918 18.4163 74.918ZM18.4163 73.987C19.2697 73.987 20.0223 73.7697 20.674 73.3353C21.3412 72.9008 21.861 72.2879 22.2334 71.4966C22.6058 70.6897 22.792 69.751 22.792 68.6803C22.792 67.6097 22.6058 66.6787 22.2334 65.8873C21.861 65.0805 21.3412 64.4598 20.674 64.0253C20.0223 63.5909 19.2697 63.3737 18.4163 63.3737C17.5629 63.3737 16.8026 63.5909 16.1354 64.0253C15.4682 64.4598 14.9484 65.0805 14.576 65.8873C14.2036 66.6787 14.0174 67.6097 14.0174 68.6803C14.0174 69.751 14.2036 70.6897 14.576 71.4966C14.9484 72.2879 15.4682 72.9008 16.1354 73.3353C16.8026 73.7697 17.5629 73.987 18.4163 73.987ZM30.8324 74.918C29.7618 74.918 28.8075 74.6542 27.9696 74.1266C27.1472 73.5835 26.4955 72.8388 26.0145 71.8922C25.549 70.9457 25.3163 69.8751 25.3163 68.6803C25.3163 67.4855 25.549 66.4149 26.0145 65.4684C26.4955 64.5219 27.1472 63.7848 27.9696 63.2573C28.8075 62.7142 29.7618 62.4427 30.8324 62.4427C31.8875 62.4427 32.8341 62.7142 33.672 63.2573C34.5098 63.7848 35.1615 64.5219 35.627 65.4684C36.0925 66.4149 36.3253 67.4855 36.3253 68.6803C36.3253 69.8751 36.0925 70.9457 35.627 71.8922C35.1615 72.8388 34.5098 73.5835 33.672 74.1266C32.8341 74.6542 31.8875 74.918 30.8324 74.918ZM30.8324 73.987C31.6858 73.987 32.4384 73.7697 33.0901 73.3353C33.7573 72.9008 34.2771 72.2879 34.6495 71.4966C35.0219 70.6897 35.2081 69.751 35.2081 68.6803C35.2081 67.6097 35.0219 66.6787 34.6495 65.8873C34.2771 65.0805 33.7573 64.4598 33.0901 64.0253C32.4384 63.5909 31.6858 63.3737 30.8324 63.3737C29.979 63.3737 29.2187 63.5909 28.5515 64.0253C27.8843 64.4598 27.3645 65.0805 26.9921 65.8873C26.6197 66.6787 26.4335 67.6097 26.4335 68.6803C26.4335 69.751 26.6197 70.6897 26.9921 71.4966C27.3645 72.2879 27.8843 72.9008 28.5515 73.3353C29.2187 73.7697 29.979 73.987 30.8324 73.987ZM38.71 62.7918H39.7108V65.4684L39.6177 65.2822C39.928 64.4753 40.4013 63.8004 41.0374 63.2573C41.6736 62.7142 42.4805 62.4427 43.458 62.4427C44.4045 62.4427 45.1648 62.722 45.739 63.2806C46.3286 63.8391 46.701 64.5607 46.8561 65.4451L46.6932 65.4684C46.9725 64.5219 47.469 63.7848 48.1828 63.2573C48.9121 62.7142 49.7189 62.4427 50.6034 62.4427C51.3327 62.4427 51.9844 62.5901 52.5585 62.8849C53.1326 63.1797 53.5826 63.6374 53.9084 64.2581C54.2343 64.8632 54.3972 65.6236 54.3972 66.539V74.5688H53.3498V66.8416C53.3498 65.7089 53.1093 64.8477 52.6283 64.2581C52.1473 63.6685 51.4413 63.3737 50.5103 63.3737C49.4862 63.3737 48.6561 63.7538 48.0199 64.5141C47.3992 65.2744 47.0889 66.3063 47.0889 67.6097V74.5688H46.0183V66.958C46.0183 65.8408 45.7777 64.9641 45.2967 64.3279C44.8312 63.6917 44.164 63.3737 43.2951 63.3737C42.6744 63.3737 42.0926 63.5443 41.5495 63.8857C41.0219 64.2271 40.5952 64.7391 40.2694 65.4218C39.9435 66.089 39.7806 66.9037 39.7806 67.8657V74.5688H38.71V62.7918ZM62.1663 74.918C61.0647 74.918 60.0871 74.6619 59.2337 74.1499C58.3958 73.6223 57.7441 72.8931 57.2786 71.9621C56.8286 71.0156 56.6037 69.9294 56.6037 68.7036C56.6037 67.4933 56.8442 66.4149 57.3252 65.4684C57.8217 64.5064 58.4812 63.7616 59.3035 63.234C60.1414 62.7064 61.0492 62.4427 62.0267 62.4427C63.0818 62.4427 64.0051 62.7064 64.7964 63.234C65.6033 63.746 66.2317 64.4831 66.6817 65.4451C67.1316 66.3916 67.3644 67.5088 67.3799 68.7967H57.3717V67.8657H66.6584L66.3558 68.3079C66.3248 66.8183 65.9214 65.6236 65.1455 64.7236C64.3697 63.8236 63.3301 63.3737 62.0267 63.3737C61.2509 63.3737 60.5293 63.5831 59.8621 64.0021C59.2104 64.421 58.6906 65.0106 58.3027 65.771C57.9148 66.5158 57.7209 67.3692 57.7209 68.3312V68.7967C57.7209 69.8363 57.907 70.7518 58.2794 71.5431C58.6518 72.3189 59.1716 72.9241 59.8389 73.3586C60.5216 73.7775 61.3129 73.987 62.2129 73.987C63.1749 73.987 63.974 73.7775 64.6102 73.3586C65.2464 72.9396 65.7041 72.381 65.9834 71.6828H67.1472C66.8058 72.6448 66.2084 73.4284 65.355 74.0335C64.5171 74.6232 63.4542 74.918 62.1663 74.918ZM69.6791 62.7918H70.7032V66.0503L70.6101 65.9572C70.8429 65.1193 71.192 64.4288 71.6575 63.8857C72.123 63.3426 72.6738 62.9625 73.31 62.7452C73.9462 62.5125 74.6366 62.4194 75.3814 62.4659V63.5598C74.3418 63.4823 73.5039 63.6064 72.8678 63.9322C72.185 64.3046 71.6575 64.8788 71.2851 65.6546C70.9282 66.4149 70.7498 67.3769 70.7498 68.5407V74.5688H69.6791V62.7918Z" fill="#161616"/>
<circle cx="13.1109" cy="11.7881" r="3.53766" fill="#161616"/>
</svg>
