<svg width="153" height="85" viewBox="0 0 153 85" fill="none" xmlns="http://www.w3.org/2000/svg">
<path d="M1.93181 45.9718H5.74888L13.2667 59.4246L12.8012 59.6574C12.7546 58.3074 12.7313 56.2049 12.7313 53.3499V45.9718H15.6174V62.2642H11.7771L4.2593 48.8113L4.67824 48.5786C4.77134 50.6267 4.81789 52.6904 4.81789 54.7697V62.2642H1.93181V45.9718ZM21.773 62.6133C20.9816 62.6133 20.2834 62.4504 19.6782 62.1245C19.0886 61.7831 18.6309 61.2866 18.305 60.6349C17.9792 59.9832 17.8162 59.1841 17.8162 58.2376V50.3707H20.586V57.7954C20.586 58.6178 20.7489 59.2462 21.0747 59.6807C21.4006 60.0996 21.9049 60.3091 22.5876 60.3091C23.0221 60.3091 23.4255 60.1927 23.7979 59.96C24.1703 59.7272 24.4728 59.3626 24.7056 58.866C24.9383 58.354 25.0547 57.7178 25.0547 56.9575V50.3707H27.8477V62.2642H25.1245V60.3789L25.2642 60.5418C24.9383 61.2246 24.4806 61.7444 23.891 62.1012C23.3013 62.4426 22.5953 62.6133 21.773 62.6133ZM33.5445 46.8562V58.354C33.5445 58.9902 33.6609 59.4634 33.8936 59.7738C34.1264 60.0841 34.5298 60.2392 35.1039 60.2392C35.4142 60.2392 35.7556 60.2005 36.128 60.1229V62.1478C35.9418 62.2254 35.6858 62.2797 35.3599 62.3107C35.0341 62.3573 34.7005 62.3805 34.3591 62.3805C33.6764 62.3805 33.0712 62.2642 32.5437 62.0314C32.0161 61.7987 31.5894 61.4263 31.2636 60.9142C30.9532 60.3867 30.7981 59.6962 30.7981 58.8428V46.8562H33.5445ZM35.8952 52.5353H28.7964V50.3707H35.8952V52.5353ZM37.378 50.3707H40.1244V53.2335L40.0081 53.1404C40.2563 52.3491 40.5744 51.7284 40.9623 51.2784C41.3503 50.8129 41.8235 50.4793 42.3821 50.2776C42.9407 50.0759 43.5924 49.9983 44.3372 50.0449V52.6982C43.4372 52.6206 42.7312 52.6749 42.2192 52.8611C41.5209 53.1094 41.0011 53.5749 40.6598 54.2576C40.3339 54.9403 40.171 55.817 40.171 56.8877V62.2642H37.378V50.3707ZM45.3392 50.3707H48.1089V62.2642H45.3392V50.3707ZM45.1297 46.0416H48.2951V48.9277H45.1297V46.0416ZM55.6993 62.6133C54.4425 62.6133 53.3485 62.3573 52.4175 61.8452C51.4866 61.3177 50.7728 60.5806 50.2763 59.6341C49.7797 58.6876 49.5315 57.5859 49.5315 56.3291C49.5315 55.1188 49.7952 54.0326 50.3228 53.0706C50.8659 52.1086 51.5952 51.3638 52.5106 50.8362C53.4261 50.2931 54.4269 50.0216 55.5131 50.0216C56.6924 50.0216 57.7242 50.3009 58.6087 50.8595C59.5086 51.4181 60.2069 52.2327 60.7034 53.3033C61.2154 54.3585 61.4792 55.6308 61.4947 57.1204H51.1142V55.0722H59.7491L58.7716 55.9567C58.7716 54.8395 58.4923 53.9395 57.9337 53.2568C57.3751 52.5741 56.5915 52.2327 55.5829 52.2327C54.9778 52.2327 54.4269 52.3879 53.9304 52.6982C53.4494 52.993 53.0692 53.412 52.7899 53.955C52.5106 54.4826 52.371 55.0645 52.371 55.7007V56.7946C52.371 57.4928 52.5106 58.1212 52.7899 58.6798C53.0848 59.2229 53.4882 59.6496 54.0002 59.96C54.5123 60.2703 55.0942 60.4254 55.7459 60.4254C56.3665 60.4254 56.8863 60.3091 57.3053 60.0763C57.7242 59.8436 58.0268 59.5332 58.213 59.1453H61.1689C60.843 60.2005 60.1991 61.0461 59.2371 61.6823C58.2906 62.303 57.1113 62.6133 55.6993 62.6133ZM62.8299 50.3707H65.553V52.3258L65.4366 52.1163C65.778 51.4957 66.2513 50.9914 66.8564 50.6035C67.4771 50.2156 68.2219 50.0216 69.0908 50.0216C69.8976 50.0216 70.5959 50.1923 71.1855 50.5336C71.7907 50.8595 72.2484 51.3483 72.5587 52C72.8846 52.6361 73.0475 53.412 73.0475 54.3274V62.2642H70.2545V54.5602C70.2545 53.8775 70.0916 53.3344 69.7658 52.931C69.4554 52.512 68.9589 52.3025 68.2762 52.3025C67.8107 52.3025 67.3762 52.4189 66.9728 52.6517C66.5693 52.8844 66.2435 53.2568 65.9952 53.7688C65.747 54.2654 65.6228 54.886 65.6228 55.6308V62.2642H62.8299V50.3707ZM78.6008 46.8562V58.354C78.6008 58.9902 78.7172 59.4634 78.9499 59.7738C79.1827 60.0841 79.5861 60.2392 80.1602 60.2392C80.4706 60.2392 80.8119 60.2005 81.1843 60.1229V62.1478C80.9981 62.2254 80.7421 62.2797 80.4163 62.3107C80.0904 62.3573 79.7568 62.3805 79.4154 62.3805C78.7327 62.3805 78.1276 62.2642 77.6 62.0314C77.0724 61.7987 76.6457 61.4263 76.3199 60.9142C76.0096 60.3867 75.8544 59.6962 75.8544 58.8428V46.8562H78.6008ZM80.9516 52.5353H73.8528V50.3707H80.9516V52.5353ZM0.977543 81.1702L11.1021 66.67L11.2883 67.0191H1.21029V65.9718H12.1029V67.0657L2.00164 81.5659L1.81544 81.2168H12.3357V82.2642H0.977543V81.1702ZM18.4163 82.6133C17.3457 82.6133 16.3914 82.3495 15.5535 81.8219C14.7311 81.2789 14.0794 80.5341 13.5984 79.5876C13.1329 78.641 12.9002 77.5704 12.9002 76.3756C12.9002 75.1809 13.1329 74.1102 13.5984 73.1637C14.0794 72.2172 14.7311 71.4802 15.5535 70.9526C16.3914 70.4095 17.3457 70.138 18.4163 70.138C19.4714 70.138 20.4179 70.4095 21.2558 70.9526C22.0937 71.4802 22.7454 72.2172 23.2109 73.1637C23.6764 74.1102 23.9092 75.1809 23.9092 76.3756C23.9092 77.5704 23.6764 78.641 23.2109 79.5876C22.7454 80.5341 22.0937 81.2789 21.2558 81.8219C20.4179 82.3495 19.4714 82.6133 18.4163 82.6133ZM18.4163 81.6823C19.2697 81.6823 20.0223 81.4651 20.674 81.0306C21.3412 80.5961 21.861 79.9832 22.2334 79.1919C22.6058 78.385 22.792 77.4463 22.792 76.3756C22.792 75.305 22.6058 74.374 22.2334 73.5826C21.861 72.7758 21.3412 72.1551 20.674 71.7207C20.0223 71.2862 19.2697 71.069 18.4163 71.069C17.5629 71.069 16.8026 71.2862 16.1354 71.7207C15.4682 72.1551 14.9484 72.7758 14.576 73.5826C14.2036 74.374 14.0174 75.305 14.0174 76.3756C14.0174 77.4463 14.2036 78.385 14.576 79.1919C14.9484 79.9832 15.4682 80.5961 16.1354 81.0306C16.8026 81.4651 17.5629 81.6823 18.4163 81.6823ZM30.8324 82.6133C29.7618 82.6133 28.8075 82.3495 27.9696 81.8219C27.1472 81.2789 26.4955 80.5341 26.0145 79.5876C25.549 78.641 25.3163 77.5704 25.3163 76.3756C25.3163 75.1809 25.549 74.1102 26.0145 73.1637C26.4955 72.2172 27.1472 71.4802 27.9696 70.9526C28.8075 70.4095 29.7618 70.138 30.8324 70.138C31.8875 70.138 32.8341 70.4095 33.672 70.9526C34.5098 71.4802 35.1615 72.2172 35.627 73.1637C36.0925 74.1102 36.3253 75.1809 36.3253 76.3756C36.3253 77.5704 36.0925 78.641 35.627 79.5876C35.1615 80.5341 34.5098 81.2789 33.672 81.8219C32.8341 82.3495 31.8875 82.6133 30.8324 82.6133ZM30.8324 81.6823C31.6858 81.6823 32.4384 81.4651 33.0901 81.0306C33.7573 80.5961 34.2771 79.9832 34.6495 79.1919C35.0219 78.385 35.2081 77.4463 35.2081 76.3756C35.2081 75.305 35.0219 74.374 34.6495 73.5826C34.2771 72.7758 33.7573 72.1551 33.0901 71.7207C32.4384 71.2862 31.6858 71.069 30.8324 71.069C29.979 71.069 29.2187 71.2862 28.5515 71.7207C27.8843 72.1551 27.3645 72.7758 26.9921 73.5826C26.6197 74.374 26.4335 75.305 26.4335 76.3756C26.4335 77.4463 26.6197 78.385 26.9921 79.1919C27.3645 79.9832 27.8843 80.5961 28.5515 81.0306C29.2187 81.4651 29.979 81.6823 30.8324 81.6823ZM38.71 70.4871H39.7108V73.1637L39.6177 72.9775C39.928 72.1706 40.4013 71.4957 41.0374 70.9526C41.6736 70.4095 42.4805 70.138 43.458 70.138C44.4045 70.138 45.1648 70.4173 45.739 70.9759C46.3286 71.5345 46.701 72.256 46.8561 73.1404L46.6932 73.1637C46.9725 72.2172 47.469 71.4802 48.1828 70.9526C48.9121 70.4095 49.7189 70.138 50.6034 70.138C51.3327 70.138 51.9844 70.2854 52.5585 70.5802C53.1326 70.875 53.5826 71.3327 53.9084 71.9534C54.2343 72.5586 54.3972 73.3189 54.3972 74.2343V82.2642H53.3498V74.5369C53.3498 73.4042 53.1093 72.543 52.6283 71.9534C52.1473 71.3638 51.4413 71.069 50.5103 71.069C49.4862 71.069 48.6561 71.4491 48.0199 72.2094C47.3992 72.9697 47.0889 74.0016 47.0889 75.305V82.2642H46.0183V74.6533C46.0183 73.5361 45.7777 72.6594 45.2967 72.0232C44.8312 71.3871 44.164 71.069 43.2951 71.069C42.6744 71.069 42.0926 71.2396 41.5495 71.581C41.0219 71.9224 40.5952 72.4344 40.2694 73.1171C39.9435 73.7844 39.7806 74.599 39.7806 75.561V82.2642H38.71V70.4871ZM62.1663 82.6133C61.0647 82.6133 60.0871 82.3573 59.2337 81.8452C58.3958 81.3177 57.7441 80.5884 57.2786 79.6574C56.8286 78.7109 56.6037 77.6247 56.6037 76.3989C56.6037 75.1886 56.8442 74.1102 57.3252 73.1637C57.8217 72.2017 58.4812 71.4569 59.3035 70.9293C60.1414 70.4018 61.0492 70.138 62.0267 70.138C63.0818 70.138 64.0051 70.4018 64.7964 70.9293C65.6033 71.4414 66.2317 72.1784 66.6817 73.1404C67.1316 74.0869 67.3644 75.2041 67.3799 76.492H57.3717V75.561H66.6584L66.3558 76.0032C66.3248 74.5136 65.9214 73.3189 65.1455 72.4189C64.3697 71.5189 63.3301 71.069 62.0267 71.069C61.2509 71.069 60.5293 71.2784 59.8621 71.6974C59.2104 72.1163 58.6906 72.706 58.3027 73.4663C57.9148 74.2111 57.7209 75.0645 57.7209 76.0265V76.492C57.7209 77.5316 57.907 78.4471 58.2794 79.2384C58.6518 80.0143 59.1716 80.6194 59.8389 81.0539C60.5216 81.4728 61.3129 81.6823 62.2129 81.6823C63.1749 81.6823 63.974 81.4728 64.6102 81.0539C65.2464 80.6349 65.7041 80.0763 65.9834 79.3781H67.1472C66.8058 80.3401 66.2084 81.1237 65.355 81.7288C64.5171 82.3185 63.4542 82.6133 62.1663 82.6133ZM69.6791 70.4871H70.7032V73.7456L70.6101 73.6525C70.8429 72.8146 71.192 72.1241 71.6575 71.581C72.123 71.0379 72.6738 70.6578 73.31 70.4405C73.9462 70.2078 74.6366 70.1147 75.3814 70.1612V71.2552C74.3418 71.1776 73.5039 71.3017 72.8678 71.6276C72.185 72 71.6575 72.5741 71.2851 73.3499C70.9282 74.1102 70.7498 75.0722 70.7498 76.236V82.2642H69.6791V70.4871Z" fill="#161616"/>
<circle cx="16.0065" cy="14.7694" r="3.50627" fill="#161616"/>
<path d="M19.8635 6.93848L27.7255 6.93848" stroke="black" stroke-width="2.69245"/>
<path d="M4.14258 22.8936L12.0046 22.8936" stroke="black" stroke-width="2.69245"/>
<path d="M24.2583 19.0757V26.9377" stroke="black" stroke-width="2.69245"/>
<path d="M7.94824 3.00537V10.8674" stroke="black" stroke-width="2.69245"/>
<path d="M13.0291 6.51123L18.5883 0.951961" stroke="black" stroke-width="2.69245"/>
<path d="M13.1909 28.9121L18.7502 23.3528" stroke="black" stroke-width="2.69245"/>
<path d="M24.7178 11.9902L30.277 17.5495" stroke="black" stroke-width="2.69245"/>
<path d="M1.82544 12.1533L7.38471 17.7126" stroke="black" stroke-width="2.69245"/>
</svg>
