<svg width="153" height="78" viewBox="0 0 153 78" fill="none" xmlns="http://www.w3.org/2000/svg">
<path d="M4.86444 40.9308L5.28339 41.3497H0.465497V38.7662H12.1727V41.3497H7.35485L7.7738 40.9308V55.0586H4.86444V40.9308ZM16.6023 55.4077C15.4541 55.4077 14.4145 55.1439 13.4835 54.6164C12.5525 54.0733 11.8232 53.3207 11.2957 52.3587C10.7681 51.3967 10.5043 50.3105 10.5043 49.1002C10.5043 47.9055 10.7681 46.8271 11.2957 45.865C11.8232 44.903 12.5525 44.1582 13.4835 43.6306C14.4145 43.0876 15.4541 42.816 16.6023 42.816C17.735 42.816 18.7669 43.0876 19.6979 43.6306C20.6289 44.1582 21.3581 44.903 21.8857 45.865C22.4133 46.8271 22.6771 47.9055 22.6771 49.1002C22.6771 50.3105 22.4133 51.3967 21.8857 52.3587C21.3581 53.3207 20.6289 54.0733 19.6979 54.6164C18.7669 55.1439 17.735 55.4077 16.6023 55.4077ZM16.6023 53.1501C17.254 53.1501 17.8204 52.9949 18.3014 52.6846C18.7824 52.3742 19.1548 51.9165 19.4186 51.3113C19.6979 50.6907 19.8375 49.9536 19.8375 49.1002C19.8375 48.2623 19.6979 47.5408 19.4186 46.9357C19.1548 46.3305 18.7824 45.8728 18.3014 45.5625C17.8204 45.2366 17.254 45.0737 16.6023 45.0737C15.9506 45.0737 15.3765 45.2366 14.88 45.5625C14.399 45.8728 14.0188 46.3305 13.7395 46.9357C13.4757 47.5408 13.3438 48.2623 13.3438 49.1002C13.3438 49.9536 13.4757 50.6907 13.7395 51.3113C14.0188 51.9165 14.399 52.3742 14.88 52.6846C15.3765 52.9949 15.9506 53.1501 16.6023 53.1501ZM26.5308 48.7278V49.4261L22.2249 43.1652H25.4136L26.6471 44.934C26.8023 45.1668 26.9419 45.3763 27.0661 45.5625C27.1902 45.7331 27.3376 45.9426 27.5083 46.1909L28.0902 47.0986H28.1134C28.3152 46.8038 28.5169 46.509 28.7186 46.2142C28.8893 45.9659 29.0289 45.7564 29.1375 45.5857C29.2617 45.3995 29.4013 45.1823 29.5565 44.934L30.7435 43.1652H33.8391L29.5565 49.333V48.6347L33.9554 55.0586H30.7901L29.3703 52.9639C29.1841 52.6846 28.9901 52.4053 28.7884 52.126C28.6643 51.9087 28.4083 51.5131 28.0203 50.9389H27.9971C27.7643 51.3269 27.5083 51.7148 27.229 52.1027C27.0428 52.3665 26.8566 52.638 26.6704 52.9173L25.2041 55.0586H22.1085L26.5308 48.7278ZM34.6732 43.1652H37.4429V55.0586H34.6732V43.1652ZM34.4637 38.836H37.6291V41.7221H34.4637V38.836ZM39.6569 43.1652H42.38V45.1202L42.2636 44.9108C42.605 44.2901 43.0783 43.7858 43.6834 43.3979C44.3041 43.01 45.0489 42.816 45.9178 42.816C46.7246 42.816 47.4229 42.9867 48.0125 43.3281C48.6177 43.6539 49.0754 44.1427 49.3857 44.7944C49.7116 45.4306 49.8745 46.2064 49.8745 47.1219V55.0586H47.0815V47.3546C47.0815 46.6719 46.9186 46.1288 46.5928 45.7254C46.2824 45.3064 45.7859 45.097 45.1032 45.097C44.6377 45.097 44.2032 45.2133 43.7998 45.4461C43.3963 45.6788 43.0705 46.0512 42.8222 46.5633C42.574 47.0598 42.4498 47.6805 42.4498 48.4253V55.0586H39.6569V43.1652ZM0.977543 73.9647L11.1021 59.4645L11.2883 59.8136H1.21029V58.7662H12.1029V59.8601L2.00164 74.3603L1.81544 74.0112H12.3357V75.0586H0.977543V73.9647ZM18.4163 75.4077C17.3457 75.4077 16.3914 75.1439 15.5535 74.6164C14.7311 74.0733 14.0794 73.3285 13.5984 72.382C13.1329 71.4355 12.9002 70.3648 12.9002 69.1701C12.9002 67.9753 13.1329 66.9046 13.5984 65.9581C14.0794 65.0116 14.7311 64.2746 15.5535 63.747C16.3914 63.2039 17.3457 62.9324 18.4163 62.9324C19.4714 62.9324 20.4179 63.2039 21.2558 63.747C22.0937 64.2746 22.7454 65.0116 23.2109 65.9581C23.6764 66.9046 23.9092 67.9753 23.9092 69.1701C23.9092 70.3648 23.6764 71.4355 23.2109 72.382C22.7454 73.3285 22.0937 74.0733 21.2558 74.6164C20.4179 75.1439 19.4714 75.4077 18.4163 75.4077ZM18.4163 74.4767C19.2697 74.4767 20.0223 74.2595 20.674 73.825C21.3412 73.3906 21.861 72.7777 22.2334 71.9863C22.6058 71.1795 22.792 70.2407 22.792 69.1701C22.792 68.0994 22.6058 67.1684 22.2334 66.3771C21.861 65.5702 21.3412 64.9496 20.674 64.5151C20.0223 64.0806 19.2697 63.8634 18.4163 63.8634C17.5629 63.8634 16.8026 64.0806 16.1354 64.5151C15.4682 64.9496 14.9484 65.5702 14.576 66.3771C14.2036 67.1684 14.0174 68.0994 14.0174 69.1701C14.0174 70.2407 14.2036 71.1795 14.576 71.9863C14.9484 72.7777 15.4682 73.3906 16.1354 73.825C16.8026 74.2595 17.5629 74.4767 18.4163 74.4767ZM30.8324 75.4077C29.7618 75.4077 28.8075 75.1439 27.9696 74.6164C27.1472 74.0733 26.4955 73.3285 26.0145 72.382C25.549 71.4355 25.3163 70.3648 25.3163 69.1701C25.3163 67.9753 25.549 66.9046 26.0145 65.9581C26.4955 65.0116 27.1472 64.2746 27.9696 63.747C28.8075 63.2039 29.7618 62.9324 30.8324 62.9324C31.8875 62.9324 32.8341 63.2039 33.672 63.747C34.5098 64.2746 35.1615 65.0116 35.627 65.9581C36.0925 66.9046 36.3253 67.9753 36.3253 69.1701C36.3253 70.3648 36.0925 71.4355 35.627 72.382C35.1615 73.3285 34.5098 74.0733 33.672 74.6164C32.8341 75.1439 31.8875 75.4077 30.8324 75.4077ZM30.8324 74.4767C31.6858 74.4767 32.4384 74.2595 33.0901 73.825C33.7573 73.3906 34.2771 72.7777 34.6495 71.9863C35.0219 71.1795 35.2081 70.2407 35.2081 69.1701C35.2081 68.0994 35.0219 67.1684 34.6495 66.3771C34.2771 65.5702 33.7573 64.9496 33.0901 64.5151C32.4384 64.0806 31.6858 63.8634 30.8324 63.8634C29.979 63.8634 29.2187 64.0806 28.5515 64.5151C27.8843 64.9496 27.3645 65.5702 26.9921 66.3771C26.6197 67.1684 26.4335 68.0994 26.4335 69.1701C26.4335 70.2407 26.6197 71.1795 26.9921 71.9863C27.3645 72.7777 27.8843 73.3906 28.5515 73.825C29.2187 74.2595 29.979 74.4767 30.8324 74.4767ZM38.71 63.2815H39.7108V65.9581L39.6177 65.7719C39.928 64.9651 40.4013 64.2901 41.0374 63.747C41.6736 63.2039 42.4805 62.9324 43.458 62.9324C44.4045 62.9324 45.1648 63.2117 45.739 63.7703C46.3286 64.3289 46.701 65.0504 46.8561 65.9349L46.6932 65.9581C46.9725 65.0116 47.469 64.2746 48.1828 63.747C48.9121 63.2039 49.7189 62.9324 50.6034 62.9324C51.3327 62.9324 51.9844 63.0798 52.5585 63.3746C53.1326 63.6694 53.5826 64.1272 53.9084 64.7478C54.2343 65.353 54.3972 66.1133 54.3972 67.0288V75.0586H53.3498V67.3313C53.3498 66.1986 53.1093 65.3375 52.6283 64.7478C52.1473 64.1582 51.4413 63.8634 50.5103 63.8634C49.4862 63.8634 48.6561 64.2436 48.0199 65.0039C47.3992 65.7642 47.0889 66.796 47.0889 68.0994V75.0586H46.0183V67.4477C46.0183 66.3305 45.7777 65.4538 45.2967 64.8177C44.8312 64.1815 44.164 63.8634 43.2951 63.8634C42.6744 63.8634 42.0926 64.0341 41.5495 64.3754C41.0219 64.7168 40.5952 65.2289 40.2694 65.9116C39.9435 66.5788 39.7806 67.3934 39.7806 68.3554V75.0586H38.71V63.2815ZM62.1663 75.4077C61.0647 75.4077 60.0871 75.1517 59.2337 74.6396C58.3958 74.1121 57.7441 73.3828 57.2786 72.4518C56.8286 71.5053 56.6037 70.4191 56.6037 69.1933C56.6037 67.983 56.8442 66.9046 57.3252 65.9581C57.8217 64.9961 58.4812 64.2513 59.3035 63.7237C60.1414 63.1962 61.0492 62.9324 62.0267 62.9324C63.0818 62.9324 64.0051 63.1962 64.7964 63.7237C65.6033 64.2358 66.2317 64.9728 66.6817 65.9349C67.1316 66.8814 67.3644 67.9986 67.3799 69.2864H57.3717V68.3554H66.6584L66.3558 68.7977C66.3248 67.3081 65.9214 66.1133 65.1455 65.2133C64.3697 64.3134 63.3301 63.8634 62.0267 63.8634C61.2509 63.8634 60.5293 64.0729 59.8621 64.4918C59.2104 64.9108 58.6906 65.5004 58.3027 66.2607C57.9148 67.0055 57.7209 67.8589 57.7209 68.8209V69.2864C57.7209 70.326 57.907 71.2415 58.2794 72.0329C58.6518 72.8087 59.1716 73.4138 59.8389 73.8483C60.5216 74.2672 61.3129 74.4767 62.2129 74.4767C63.1749 74.4767 63.974 74.2672 64.6102 73.8483C65.2464 73.4294 65.7041 72.8708 65.9834 72.1725H67.1472C66.8058 73.1345 66.2084 73.9181 65.355 74.5233C64.5171 75.1129 63.4542 75.4077 62.1663 75.4077ZM69.6791 63.2815H70.7032V66.54L70.6101 66.4469C70.8429 65.609 71.192 64.9185 71.6575 64.3754C72.123 63.8324 72.6738 63.4522 73.31 63.235C73.9462 63.0022 74.6366 62.9091 75.3814 62.9557V64.0496C74.3418 63.972 73.5039 64.0961 72.8678 64.422C72.185 64.7944 71.6575 65.3685 71.2851 66.1443C70.9282 66.9046 70.7498 67.8667 70.7498 69.0304V75.0586H69.6791V63.2815Z" fill="#161616"/>
<circle cx="15.503" cy="13.1817" r="3.53766" fill="#161616"/>
<path d="M9.76318 0.807129C10.3578 1.61154 12.3023 3.22037 15.3241 3.22037C18.3459 3.22037 20.7102 1.75144 21.5146 1.01698" stroke="black" stroke-width="2.71655"/>
<path d="M21.5178 25.6743C20.9233 24.8699 18.9787 23.2611 15.9569 23.2611C12.9351 23.2611 10.5708 24.73 9.76637 25.4645" stroke="black" stroke-width="2.71655"/>
<path d="M28.074 7.36523C27.2696 7.9598 25.6607 9.90439 25.6607 12.9262C25.6607 15.948 27.1297 18.3123 27.8641 19.1167" stroke="black" stroke-width="2.71655"/>
<path d="M3.20703 19.1162C4.01145 18.5216 5.62028 16.5771 5.62028 13.5553C5.62028 10.5335 4.15134 8.16917 3.41688 7.36476" stroke="black" stroke-width="2.71655"/>
</svg>
